<?xml version="1.0" standalone="no"?>
<!DOCTYPE svg PUBLIC "-//W3C//DTD SVG 20010904//EN"
 "http://www.w3.org/TR/2001/REC-SVG-20010904/DTD/svg10.dtd">
<svg version="1.0" xmlns="http://www.w3.org/2000/svg"
 width="460.000000pt" height="460.000000pt" viewBox="0 0 460.000000 460.000000"
 preserveAspectRatio="xMidYMid meet">

<g transform="translate(0.000000,460.000000) scale(0.100000,-0.100000)"
fill="#000000" stroke="none">
<path d="M3353 4073 c-7 -3 -13 -11 -13 -19 0 -8 -4 -14 -10 -14 -5 0 -10 5
-10 10 0 13 -35 13 -58 1 -9 -5 -52 -24 -94 -42 -42 -19 -74 -38 -71 -43 3 -5
1 -6 -5 -2 -7 4 -30 -3 -53 -16 -30 -17 -39 -27 -35 -41 2 -10 2 -26 -2 -35
-5 -12 -8 -8 -12 16 l-5 33 -65 -50 c-37 -27 -72 -56 -79 -65 -7 -9 -19 -16
-26 -16 -8 0 -12 -9 -9 -22 3 -18 2 -18 -6 3 -6 15 -21 29 -33 32 -12 3 -58
14 -101 26 -44 12 -80 21 -82 21 -1 0 -5 -8 -7 -17 -4 -16 -6 -15 -12 3 -6 18
-17 22 -88 28 -45 3 -123 6 -174 6 l-92 0 -4 -27 c-4 -28 -4 -28 -12 -4 -8 22
-11 23 -86 19 -43 -3 -84 -9 -91 -15 -7 -6 -35 -14 -63 -18 -27 -4 -66 -16
-86 -26 -36 -18 -37 -18 -55 2 -33 36 -205 146 -295 187 -98 46 -154 63 -175
55 -8 -3 -14 0 -14 7 0 10 -4 9 -16 0 -12 -11 -15 -11 -12 1 2 9 -7 15 -25 17
-19 2 -27 -1 -27 -12 0 -9 -8 -16 -17 -15 -11 0 -13 3 -5 6 19 7 4 23 -23 23
-14 0 -29 -8 -35 -20 -6 -12 -10 -118 -9 -291 l2 -273 -31 -27 c-17 -15 -46
-61 -63 -101 -32 -71 -33 -77 -37 -246 -4 -180 2 -267 19 -256 6 3 8 -6 4 -23
-3 -15 -2 -22 1 -15 12 25 26 12 19 -18 -4 -17 -2 -36 3 -43 5 -7 10 -19 10
-27 1 -8 6 -69 11 -135 5 -66 10 -140 11 -165 l2 -45 9 33 c5 17 14 32 19 32
4 0 10 8 12 18 2 9 7 -21 11 -68 8 -89 14 -102 46 -105 11 -1 30 -12 41 -25
11 -13 20 -18 20 -12 0 20 25 13 47 -12 15 -17 28 -23 42 -19 16 4 21 1 21
-14 0 -13 8 -19 28 -21 15 -1 28 -6 30 -12 2 -5 9 -7 15 -4 7 2 23 -5 35 -16
12 -11 22 -18 22 -14 0 3 7 1 15 -6 8 -7 15 -21 15 -31 0 -13 6 -17 20 -14 11
2 18 0 15 -6 -4 -5 6 -9 20 -9 14 0 24 -4 21 -9 -4 -5 6 -8 20 -6 25 2 64 -27
64 -48 0 -5 6 -5 13 1 9 8 20 7 39 -2 15 -8 29 -12 32 -8 3 3 6 0 6 -7 0 -7 6
-11 13 -8 8 3 20 1 28 -3 8 -6 16 -4 21 3 6 9 8 8 8 -3 0 -13 1 -13 10 0 7 11
10 11 10 2 0 -7 4 -11 9 -7 5 3 12 1 16 -4 3 -6 12 -8 19 -5 9 3 19 -7 27 -25
10 -22 21 -31 37 -31 12 0 25 -6 28 -14 4 -10 17 -13 47 -10 26 2 55 -2 77
-13 37 -17 79 -23 86 -12 2 3 18 5 36 2 72 -8 129 -9 134 -2 3 5 18 6 34 2 19
-3 30 -1 30 6 0 6 13 9 30 7 17 -2 30 1 30 6 0 6 7 8 15 4 8 -3 15 -1 15 5 0
5 11 7 25 5 15 -3 32 2 42 12 12 13 17 14 21 4 3 -9 10 -6 22 9 11 11 24 18
29 14 6 -3 11 -1 11 5 0 7 6 10 14 7 8 -3 22 1 33 8 19 15 37 20 30 8 -3 -5 1
-14 9 -21 12 -11 14 -9 14 7 0 14 5 19 15 15 8 -4 15 -1 15 6 0 7 7 10 15 6 8
-3 15 0 16 7 0 7 4 3 8 -7 7 -18 8 -18 29 4 12 13 19 27 16 32 -3 4 4 8 15 8
15 0 21 -6 21 -22 0 -31 9 -17 12 19 2 24 7 31 25 31 13 0 23 -4 23 -9 0 -5 7
-9 16 -9 8 0 13 4 10 9 -3 5 6 21 19 35 14 15 25 22 25 15 0 -6 9 -1 19 13 15
19 29 24 59 24 35 -1 40 2 57 37 18 36 38 47 50 27 11 -17 23 -11 29 15 4 14
13 25 21 25 8 0 15 7 15 15 0 8 6 15 14 15 9 0 16 12 18 28 2 22 8 27 30 28
42 2 56 20 64 82 4 36 14 64 26 75 29 28 35 52 43 162 4 62 16 130 32 180 20
61 27 108 31 202 5 131 -3 233 -19 233 -6 0 -9 -7 -7 -16 2 -10 -2 -19 -9 -21
-13 -5 -5 38 9 48 16 11 -33 120 -89 195 -23 31 -23 34 -23 312 0 244 -2 282
-15 282 -8 0 -15 -6 -15 -12 0 -9 -4 -8 -10 2 -9 13 -11 13 -20 0 -8 -13 -10
-13 -10 2 0 20 -10 27 -27 21z m-113 -78 c-7 -9 -15 -13 -17 -11 -7 7 7 26 19
26 6 0 6 -6 -2 -15z m-1947 -10 c-3 -9 -8 -14 -10 -11 -3 3 -2 9 2 15 9 16 15
13 8 -4z m94 -7 c-3 -8 -6 -5 -6 6 -1 11 2 17 5 13 3 -3 4 -12 1 -19z m1783 2
c0 -5 -4 -10 -10 -10 -5 0 -10 5 -10 10 0 6 5 10 10 10 6 0 10 -4 10 -10z
m-1715 -10 c3 -5 1 -10 -4 -10 -6 0 -11 5 -11 10 0 6 2 10 4 10 3 0 8 -4 11
-10z m1815 0 c0 -5 -4 -10 -10 -10 -5 0 -10 5 -10 10 0 6 5 10 10 10 6 0 10
-4 10 -10z m-1737 -39 c-6 -3 -13 -13 -16 -21 -4 -11 -6 -9 -6 6 -1 24 8 36
21 27 7 -3 7 -8 1 -12z m1657 -17 c0 -8 -2 -14 -4 -14 -2 0 -11 -3 -20 -6 -13
-5 -13 -2 -3 19 12 26 27 27 27 1z m-1896 1 c3 -8 1 -15 -4 -15 -6 0 -10 7
-10 15 0 8 2 15 4 15 2 0 6 -7 10 -15z m23 -7 c-3 -8 -6 -5 -6 6 -1 11 2 17 5
13 3 -3 4 -12 1 -19z m143 13 c0 -6 -4 -13 -10 -16 -5 -3 -10 1 -10 9 0 9 5
16 10 16 6 0 10 -4 10 -9z m83 -16 c-3 -9 -8 -14 -10 -11 -3 3 -2 9 2 15 9 16
15 13 8 -4z m1712 -5 c3 -6 -1 -7 -9 -4 -18 7 -21 14 -7 14 6 0 13 -4 16 -10z
m-1575 -31 c0 -6 -4 -7 -10 -4 -5 3 -10 11 -10 16 0 6 5 7 10 4 6 -3 10 -11
10 -16z m-280 -30 c0 -6 -4 -7 -10 -4 -5 3 -10 11 -10 16 0 6 5 7 10 4 6 -3
10 -11 10 -16z m1030 0 c0 -11 -4 -17 -10 -14 -5 3 -10 13 -10 21 0 8 5 14 10
14 6 0 10 -9 10 -21z m510 6 c0 -8 -9 -15 -20 -15 -25 0 -26 17 -2 23 9 3 18
5 20 6 1 0 2 -6 2 -14z m-1275 -5 c3 -5 1 -10 -4 -10 -6 0 -11 5 -11 10 0 6 2
10 4 10 3 0 8 -4 11 -10z m475 0 c0 -5 -5 -10 -11 -10 -5 0 -7 5 -4 10 3 6 8
10 11 10 2 0 4 -4 4 -10z m370 4 c0 -3 -7 -12 -15 -20 -16 -17 -18 -14 -9 10
6 15 24 23 24 10z m520 -4 c0 -5 -4 -10 -10 -10 -5 0 -10 5 -10 10 0 6 5 10
10 10 6 0 10 -4 10 -10z m-1560 -34 c0 -3 -4 -8 -10 -11 -5 -3 -10 -1 -10 4 0
6 5 11 10 11 6 0 10 -2 10 -4z m1700 -43 c0 -13 -3 -23 -7 -23 -5 0 -8 16 -9
35 0 22 3 31 8 23 4 -7 8 -23 8 -35z m-1945 27 c3 -5 2 -10 -4 -10 -5 0 -13 5
-16 10 -3 6 -2 10 4 10 5 0 13 -4 16 -10z m102 -22 c-3 -7 -5 -2 -5 12 0 14 2
19 5 13 2 -7 2 -19 0 -25z m72 -18 c0 -9 -4 -8 -9 5 -5 11 -9 27 -9 35 0 9 4
8 9 -5 5 -11 9 -27 9 -35z m558 28 c-3 -8 -6 -5 -6 6 -1 11 2 17 5 13 3 -3 4
-12 1 -19z m317 -5 c-8 -33 -27 -58 -21 -28 5 25 18 55 23 55 3 0 1 -12 -2
-27z m304 2 c0 -14 -4 -25 -9 -25 -10 0 -12 34 -2 43 10 10 11 9 11 -18z m160
-11 c-2 -10 -11 -20 -21 -22 -13 -3 -17 3 -16 25 1 23 2 24 6 6 2 -13 9 -23
15 -23 6 0 8 11 3 28 -5 20 -4 24 5 16 7 -7 10 -20 8 -30z m266 21 c-4 -8 -8
-15 -10 -15 -2 0 -4 7 -4 15 0 8 4 15 10 15 5 0 7 -7 4 -15z m233 -7 c-3 -8
-6 -5 -6 6 -1 11 2 17 5 13 3 -3 4 -12 1 -19z m178 12 c3 -5 1 -10 -4 -10 -6
0 -11 5 -11 10 0 6 2 10 4 10 3 0 8 -4 11 -10z m-1736 -27 c-1 -22 -2 -23 -6
-8 -3 11 -10 23 -17 27 -7 5 -5 8 7 8 12 0 17 -7 16 -27z m71 17 c0 -5 -6 -7
-14 -4 -9 4 -16 -3 -19 -18 -4 -21 -4 -20 -6 5 -1 21 4 27 19 27 11 0 20 -4
20 -10z m38 -10 c-14 -22 -24 -19 -15 5 4 8 11 15 17 15 6 0 6 -7 -2 -20z
m147 -1 c10 -30 2 -32 -12 -3 -6 13 -7 24 -3 24 5 0 12 -9 15 -21z m125 1 c0
-25 -27 -37 -43 -21 -9 9 -8 11 6 5 13 -5 20 -1 24 15 7 27 13 27 13 1z m300
10 c0 -5 -7 -7 -15 -4 -8 4 -15 8 -15 10 0 2 7 4 15 4 8 0 15 -4 15 -10z m140
6 c0 -3 -4 -8 -10 -11 -5 -3 -10 -1 -10 4 0 6 5 11 10 11 6 0 10 -2 10 -4z
m17 -33 c-3 -10 -5 -4 -5 12 0 17 2 24 5 18 2 -7 2 -21 0 -30z m352 3 c-3 -3
-11 5 -18 17 -13 21 -12 21 5 5 10 -10 16 -20 13 -22z m38 2 c-3 -7 -5 -2 -5
12 0 14 2 19 5 13 2 -7 2 -19 0 -25z m197 16 c9 -24 7 -34 -6 -34 -7 0 -13 11
-13 25 0 28 10 33 19 9z m-1799 -32 c-8 -8 -25 10 -25 26 0 13 2 13 14 -4 8
-10 13 -21 11 -22z m302 16 c-3 -8 -6 -5 -6 6 -1 11 2 17 5 13 3 -3 4 -12 1
-19z m1166 2 c-3 -12 -8 -19 -11 -16 -5 6 5 36 12 36 2 0 2 -9 -1 -20z m254
-12 c-3 -7 -5 -2 -5 12 0 14 2 19 5 13 2 -7 2 -19 0 -25z m-1560 -10 c-3 -7
-5 -2 -5 12 0 14 2 19 5 13 2 -7 2 -19 0 -25z m100 10 c-3 -8 -6 -5 -6 6 -1
11 2 17 5 13 3 -3 4 -12 1 -19z m303 6 c0 -8 -4 -12 -10 -9 -5 3 -10 10 -10
16 0 5 5 9 10 9 6 0 10 -7 10 -16z m770 6 c0 -5 -5 -10 -11 -10 -5 0 -7 5 -4
10 3 6 8 10 11 10 2 0 4 -4 4 -10z m17 -12 c-3 -8 -6 -5 -6 6 -1 11 2 17 5 13
3 -3 4 -12 1 -19z m-173 -3 c3 -8 1 -15 -4 -15 -6 0 -10 7 -10 15 0 8 2 15 4
15 2 0 6 -7 10 -15z m466 5 c0 -5 -5 -10 -11 -10 -5 0 -7 5 -4 10 3 6 8 10 11
10 2 0 4 -4 4 -10z m-585 -10 c-3 -5 -14 -10 -23 -9 -14 0 -13 2 3 9 27 11 27
11 20 0z m-565 -50 c0 -11 -4 -20 -10 -20 -5 0 -10 9 -10 20 0 11 5 20 10 20
6 0 10 -9 10 -20z m70 0 c0 -11 -2 -20 -4 -20 -2 0 -6 9 -9 20 -3 11 -1 20 4
20 5 0 9 -9 9 -20z m57 -12 c-3 -7 -5 -2 -5 12 0 14 2 19 5 13 2 -7 2 -19 0
-25z m562 25 c0 -5 -4 -17 -9 -28 -8 -18 -9 -17 -9 8 -1 15 4 27 9 27 6 0 10
-3 9 -7z m28 -15 c-3 -8 -6 -5 -6 6 -1 11 2 17 5 13 3 -3 4 -12 1 -19z m120
16 c-3 -3 -12 -4 -19 -1 -8 3 -5 6 6 6 11 1 17 -2 13 -5z m316 -14 c-8 -30
-21 -34 -15 -5 2 14 8 25 12 25 5 0 6 -9 3 -20z m-1276 -12 c-3 -8 -6 -5 -6 6
-1 11 2 17 5 13 3 -3 4 -12 1 -19z m80 0 c-3 -8 -6 -5 -6 6 -1 11 2 17 5 13 3
-3 4 -12 1 -19z m210 0 c-3 -8 -6 -5 -6 6 -1 11 2 17 5 13 3 -3 4 -12 1 -19z
m241 -3 c-3 -3 -9 2 -12 12 -6 14 -5 15 5 6 7 -7 10 -15 7 -18z m510 0 c-3 -3
-9 2 -12 12 -6 14 -5 15 5 6 7 -7 10 -15 7 -18z m59 3 c-3 -8 -6 -5 -6 6 -1
11 2 17 5 13 3 -3 4 -12 1 -19z m100 0 c-3 -8 -6 -5 -6 6 -1 11 2 17 5 13 3
-3 4 -12 1 -19z m-1487 2 c0 -5 -5 -10 -11 -10 -5 0 -7 5 -4 10 3 6 8 10 11
10 2 0 4 -4 4 -10z m1190 -6 c0 -2 -7 -4 -15 -4 -8 0 -15 4 -15 10 0 5 7 7 15
4 8 -4 15 -8 15 -10z m840 6 c0 -5 -4 -10 -9 -10 -6 0 -13 5 -16 10 -3 6 1 10
9 10 9 0 16 -4 16 -10z m-1063 -36 c-3 -3 -12 -4 -19 -1 -8 3 -5 6 6 6 11 1
17 -2 13 -5z m-1064 -26 c-4 -21 -3 -22 10 -5 19 22 27 22 27 -3 0 -15 -7 -20
-25 -20 -20 0 -25 5 -25 25 0 14 4 25 9 25 5 0 7 -10 4 -22z m291 7 c-4 -8 -8
-15 -10 -15 -2 0 -4 7 -4 15 0 8 4 15 10 15 5 0 7 -7 4 -15z m181 -14 c-3 -12
-10 -21 -15 -21 -4 0 -3 11 3 24 14 29 22 27 12 -3z m45 3 c0 -8 5 -12 10 -9
6 3 10 1 10 -5 0 -19 -22 -6 -31 19 -6 14 -5 20 1 16 6 -3 10 -13 10 -21z
m197 -11 c-3 -10 -5 -4 -5 12 0 17 2 24 5 18 2 -7 2 -21 0 -30z m47 4 c-10
-26 -22 -20 -16 9 3 15 8 22 14 16 5 -5 6 -16 2 -25z m363 11 c-3 -8 -6 -5 -6
6 -1 11 2 17 5 13 3 -3 4 -12 1 -19z m838 -8 c9 0 12 -6 8 -16 -5 -13 -8 -12
-24 5 -11 11 -19 26 -19 33 0 8 5 6 11 -4 5 -10 16 -18 24 -18z m-2024 -5 c5
4 9 1 9 -5 0 -17 -25 -6 -26 11 -1 9 1 10 3 1 3 -7 9 -10 14 -7z m246 0 c-4
-8 -14 -14 -24 -14 -17 1 -17 2 0 6 9 2 17 12 17 20 0 9 3 14 6 10 4 -3 4 -13
1 -22z m490 3 c-3 -8 -6 -5 -6 6 -1 11 2 17 5 13 3 -3 4 -12 1 -19z m-360 -10
c-3 -8 -6 -5 -6 6 -1 11 2 17 5 13 3 -3 4 -12 1 -19z m503 7 c0 -8 -4 -15 -10
-15 -5 0 -7 7 -4 15 4 8 8 15 10 15 2 0 4 -7 4 -15z m927 -7 c-3 -8 -6 -5 -6
6 -1 11 2 17 5 13 3 -3 4 -12 1 -19z m153 7 c0 -9 -9 -15 -22 -15 -21 0 -21 0
-2 15 24 18 24 18 24 0z m240 -1 c0 -2 -7 -4 -15 -4 -8 0 -15 4 -15 10 0 5 7
7 15 4 8 -4 15 -8 15 -10z m-80 -4 c0 -5 -4 -10 -10 -10 -5 0 -10 5 -10 10 0
6 5 10 10 10 6 0 10 -4 10 -10z m-693 -6 c-3 -3 -12 -4 -19 -1 -8 3 -5 6 6 6
11 1 17 -2 13 -5z m-700 -20 c-3 -3 -12 -4 -19 -1 -8 3 -5 6 6 6 11 1 17 -2
13 -5z m1463 -29 c-14 -17 -45 -21 -35 -5 4 6 10 8 15 5 4 -3 11 2 14 11 4 9
9 14 13 11 3 -4 0 -13 -7 -22z m-2120 5 c0 -5 -5 -10 -11 -10 -5 0 -7 5 -4 10
3 6 8 10 11 10 2 0 4 -4 4 -10z m27 -12 c-3 -8 -6 -5 -6 6 -1 11 2 17 5 13 3
-3 4 -12 1 -19z m580 0 c-3 -8 -6 -5 -6 6 -1 11 2 17 5 13 3 -3 4 -12 1 -19z
m220 -10 c-3 -7 -5 -2 -5 12 0 14 2 19 5 13 2 -7 2 -19 0 -25z m720 10 c-3 -8
-6 -5 -6 6 -1 11 2 17 5 13 3 -3 4 -12 1 -19z m20 0 c-3 -8 -6 -5 -6 6 -1 11
2 17 5 13 3 -3 4 -12 1 -19z m68 13 c3 -5 1 -12 -5 -16 -5 -3 -10 1 -10 9 0
18 6 21 15 7z m-1424 -74 c-10 -9 -11 -8 -5 6 3 10 9 15 12 12 3 -3 0 -11 -7
-18z m432 16 c-7 -2 -13 -14 -13 -26 0 -16 -3 -18 -12 -9 -13 13 6 43 26 41 7
0 6 -2 -1 -6z m407 -3 c0 -5 -2 -10 -4 -10 -3 0 -8 5 -11 10 -3 6 -1 10 4 10
6 0 11 -4 11 -10z m80 -6 c0 -8 -5 -12 -10 -9 -6 4 -8 11 -5 16 9 14 15 11 15
-7z m217 -6 c-3 -8 -6 -5 -6 6 -1 11 2 17 5 13 3 -3 4 -12 1 -19z m203 7 c0
-8 -4 -15 -10 -15 -5 0 -7 7 -4 15 4 8 8 15 10 15 2 0 4 -7 4 -15z m254 -29
c-3 -9 -13 -16 -22 -16 -14 0 -14 2 0 18 9 9 13 24 11 32 -3 11 -1 10 6 -2 6
-9 8 -23 5 -32z m-1145 -7 c-7 -4 -16 -5 -19 -2 -3 3 1 8 8 10 6 3 13 12 13
21 1 14 2 13 6 -2 3 -10 -1 -22 -8 -27z m138 9 c-3 -7 -5 -2 -5 12 0 14 2 19
5 13 2 -7 2 -19 0 -25z m30 0 c-3 -7 -5 -2 -5 12 0 14 2 19 5 13 2 -7 2 -19 0
-25z m93 12 c0 -11 -4 -20 -9 -20 -5 0 -7 9 -4 20 3 11 7 20 9 20 2 0 4 -9 4
-20z m807 -2 c-3 -8 -6 -5 -6 6 -1 11 2 17 5 13 3 -3 4 -12 1 -19z m160 0 c-3
-8 -6 -5 -6 6 -1 11 2 17 5 13 3 -3 4 -12 1 -19z m75 0 c-7 -7 -12 -8 -12 -2
0 6 3 14 7 17 3 4 9 5 12 2 2 -3 -1 -11 -7 -17z m-785 -10 c-3 -8 -6 -5 -6 6
-1 11 2 17 5 13 3 -3 4 -12 1 -19z m938 12 c-3 -5 -11 -10 -16 -10 -6 0 -7 5
-4 10 3 6 11 10 16 10 6 0 7 -4 4 -10z m-2085 -10 c0 -5 -5 -10 -11 -10 -5 0
-7 5 -4 10 3 6 8 10 11 10 2 0 4 -4 4 -10z m210 6 c0 -3 -4 -8 -10 -11 -5 -3
-10 -1 -10 4 0 6 5 11 10 11 6 0 10 -2 10 -4z m140 -13 c0 -7 -7 -13 -15 -13
-8 0 -15 6 -15 13 0 8 7 14 15 14 8 0 15 -6 15 -14z m690 8 c0 -5 -7 -12 -16
-15 -14 -5 -15 -4 -4 9 14 17 20 19 20 6z m-1210 -11 c0 -5 -5 -10 -11 -10 -5
0 -7 5 -4 10 3 6 8 10 11 10 2 0 4 -4 4 -10z m-14 -76 c8 3 14 1 14 -5 0 -6
-10 -9 -22 -7 -17 2 -23 10 -24 28 -1 39 11 49 14 12 2 -24 7 -32 18 -28z
m237 41 c4 -8 2 -17 -3 -20 -6 -4 -10 3 -10 14 0 25 6 27 13 6z m1039 -19 c2
-19 0 -32 -4 -30 -8 5 -12 64 -4 64 2 0 6 -15 8 -34z m67 14 c-6 -5 -9 -17 -6
-29 3 -12 1 -21 -4 -21 -5 0 -9 16 -9 35 0 27 3 33 16 28 12 -4 13 -8 3 -13z
m781 6 c0 -10 -7 -12 -21 -9 -19 5 -21 3 -17 -20 3 -15 2 -27 -3 -27 -28 0
-15 57 15 63 11 2 22 5 24 6 1 0 2 -5 2 -13z m160 4 c0 -5 -4 -10 -10 -10 -5
0 -10 5 -10 10 0 6 5 10 10 10 6 0 10 -4 10 -10z m70 -32 c0 -17 -3 -28 -7
-24 -10 9 -11 66 -1 60 4 -3 8 -19 8 -36z m-2202 2 c-7 -11 -14 -17 -17 -15
-2 3 1 11 7 18 7 8 8 18 4 22 -4 5 -1 5 5 1 10 -5 10 -11 1 -26z m807 1 c0
-19 -4 -27 -12 -24 -14 6 -16 14 -7 37 10 25 19 19 19 -13z m22 -18 c-3 -10
-5 -2 -5 17 0 19 2 27 5 18 2 -10 2 -26 0 -35z m195 17 c-2 -16 -6 -30 -8 -30
-2 0 -4 14 -4 30 0 17 4 30 8 30 5 0 7 -13 4 -30z m335 -7 c-3 -10 -5 -4 -5
12 0 17 2 24 5 18 2 -7 2 -21 0 -30z m340 -10 c-3 -10 -5 -2 -5 17 0 19 2 27
5 18 2 -10 2 -26 0 -35z m335 -3 c6 0 8 10 4 25 -4 14 -2 25 4 25 5 0 10 -14
10 -31 0 -24 -4 -30 -17 -27 -11 2 -18 13 -19 28 -1 22 0 22 3 3 2 -13 9 -23
15 -23z m-1165 18 c-3 -8 -6 -5 -6 6 -1 11 2 17 5 13 3 -3 4 -12 1 -19z m400
0 c-3 -8 -6 -5 -6 6 -1 11 2 17 5 13 3 -3 4 -12 1 -19z m-1237 -8 c0 -11 -4
-20 -9 -20 -5 0 -7 9 -4 20 3 11 7 20 9 20 2 0 4 -9 4 -20z m884 -4 c-3 -9
-10 -16 -15 -16 -5 0 -4 9 3 20 14 22 21 20 12 -4z m1177 -3 c-8 -15 -10 -15
-11 -2 0 17 10 32 18 25 2 -3 -1 -13 -7 -23z m-1024 -5 c-3 -8 -6 -5 -6 6 -1
11 2 17 5 13 3 -3 4 -12 1 -19z m400 0 c-3 -8 -6 -5 -6 6 -1 11 2 17 5 13 3
-3 4 -12 1 -19z m140 0 c-3 -8 -6 -5 -6 6 -1 11 2 17 5 13 3 -3 4 -12 1 -19z
m363 12 c0 -5 -5 -10 -11 -10 -5 0 -7 5 -4 10 3 6 8 10 11 10 2 0 4 -4 4 -10z
m160 -5 c0 -8 -4 -15 -10 -15 -5 0 -7 7 -4 15 4 8 8 15 10 15 2 0 4 -7 4 -15z
m-840 -5 c0 -5 -5 -10 -11 -10 -5 0 -7 5 -4 10 3 6 8 10 11 10 2 0 4 -4 4 -10z
m63 -55 c-3 -9 -8 -14 -10 -11 -3 3 -2 9 2 15 9 16 15 13 8 -4z m-548 -5 c3
-5 1 -10 -4 -10 -6 0 -11 5 -11 10 0 6 2 10 4 10 3 0 8 -4 11 -10z m1295 6 c0
-3 -4 -8 -10 -11 -5 -3 -10 -1 -10 4 0 6 5 11 10 11 6 0 10 -2 10 -4z m-2243
-63 c3 -7 -3 -9 -16 -6 -12 3 -21 10 -21 15 0 13 32 6 37 -9z m66 -3 c3 -11 1
-18 -4 -14 -5 3 -9 12 -9 20 0 20 7 17 13 -6z m224 -2 c-3 -8 -6 -5 -6 6 -1
11 2 17 5 13 3 -3 4 -12 1 -19z m483 -5 c-1 -24 -2 -26 -11 -10 -5 9 -7 22 -4
27 10 17 15 11 15 -17z m27 5 c-3 -8 -6 -5 -6 6 -1 11 2 17 5 13 3 -3 4 -12 1
-19z m98 12 c3 -5 1 -10 -4 -10 -6 0 -11 5 -11 10 0 6 2 10 4 10 3 0 8 -4 11
-10z m42 -27 c-3 -10 -5 -4 -5 12 0 17 2 24 5 18 2 -7 2 -21 0 -30z m121 9 c2
-12 -1 -22 -7 -22 -6 0 -11 10 -12 23 0 20 -1 20 -8 3 -6 -17 -8 -17 -14 -4
-7 20 2 30 23 26 8 -2 16 -13 18 -26z m227 -2 c0 -27 -22 -39 -31 -16 -8 22 3
49 19 43 6 -2 12 -14 12 -27z m262 -22 c-2 -13 -4 -5 -4 17 -1 22 1 32 4 23 2
-10 2 -28 0 -40z m78 42 c3 -5 -3 -10 -14 -10 -12 0 -21 5 -21 10 0 6 6 10 14
10 8 0 18 -4 21 -10z m83 -20 c-2 -16 -10 -26 -23 -27 -16 -1 -16 -1 -2 3 9 3
17 10 17 16 0 6 -8 17 -17 24 -17 12 -16 13 5 11 18 -1 22 -6 20 -27z m379
-20 c11 0 14 7 11 25 -3 14 -1 25 4 25 5 0 8 -12 6 -27 -4 -38 -43 -40 -44 -3
-1 22 0 22 3 3 2 -13 11 -23 20 -23z m73 23 c0 -22 -2 -25 -10 -13 -13 20 -13
40 0 40 6 0 10 -12 10 -27z m26 -31 c-12 -12 -18 8 -10 35 l8 28 4 -28 c2 -16
1 -31 -2 -35z m54 43 c-6 -8 -9 -19 -5 -25 10 -16 25 -2 25 23 0 15 3 18 11
10 8 -8 8 -17 0 -32 -14 -25 -24 -26 -41 -6 -14 16 -7 45 11 45 8 0 8 -4 -1
-15z m114 -1 c8 -22 7 -34 -3 -34 -5 0 -8 8 -7 17 0 10 -7 19 -17 21 -16 3
-18 0 -12 -20 5 -20 4 -20 -5 -5 -6 9 -8 22 -5 27 10 16 42 12 49 -6z m-2444
-14 c0 -11 -4 -20 -9 -20 -5 0 -7 9 -4 20 3 11 7 20 9 20 2 0 4 -9 4 -20z
m322 2 c3 -11 0 -19 -8 -19 -8 0 -14 9 -14 19 0 10 4 18 9 18 5 0 11 -8 13
-18z m283 7 c11 -17 -1 -21 -15 -4 -8 9 -8 15 -2 15 6 0 14 -5 17 -11z m913
-11 c-3 -25 -39 -33 -44 -10 -1 7 0 8 3 2 7 -15 33 -12 33 4 0 8 -10 17 -22
19 -19 4 -18 4 5 6 24 1 28 -2 25 -21z m579 0 c-3 -8 -6 -5 -6 6 -1 11 2 17 5
13 3 -3 4 -12 1 -19z m-1683 -4 c3 -8 2 -12 -4 -9 -6 3 -10 10 -10 16 0 14 7
11 14 -7z m333 -16 c-3 -7 -5 -2 -5 12 0 14 2 19 5 13 2 -7 2 -19 0 -25z m519
16 c-4 -12 -2 -15 9 -10 8 3 15 1 15 -4 0 -11 -23 -14 -33 -4 -6 6 2 34 10 34
3 0 2 -7 -1 -16z m-591 -4 c3 -5 1 -10 -4 -10 -6 0 -11 5 -11 10 0 6 2 10 4
10 3 0 8 -4 11 -10z m302 -5 c-2 -5 -10 -10 -17 -10 -7 0 -15 5 -17 10 -2 6 6
11 17 11 11 0 19 -5 17 -11z m743 -7 c0 -13 -32 -6 -37 9 -3 7 3 9 16 6 12 -3
21 -10 21 -15z m-1630 2 c0 -5 -10 -10 -22 -9 -22 0 -22 1 -3 9 11 5 21 9 23
9 1 1 2 -3 2 -9z m160 0 c0 -5 -5 -10 -11 -10 -5 0 -7 5 -4 10 3 6 8 10 11 10
2 0 4 -4 4 -10z m640 0 c0 -5 -4 -10 -10 -10 -5 0 -10 5 -10 10 0 6 5 10 10
10 6 0 10 -4 10 -10z m1070 -6 c0 -2 -9 -4 -21 -4 -11 0 -18 4 -14 10 5 8 35
3 35 -6z m-1637 -44 c-3 -12 -8 -19 -11 -16 -5 6 5 36 12 36 2 0 2 -9 -1 -20z
m277 -8 c0 -15 -2 -15 -10 -2 -13 20 -13 33 0 25 6 -3 10 -14 10 -23z m1600
21 c0 -5 -5 -15 -10 -23 -7 -12 -9 -10 -7 8 1 19 17 33 17 15z m226 -31 c-15
-15 -15 -15 -4 10 7 15 15 23 17 17 2 -6 -4 -18 -13 -27z m-2187 12 c6 4 11 2
11 -3 0 -6 -9 -11 -20 -11 -12 0 -20 7 -20 18 0 13 2 14 9 3 5 -7 14 -10 20
-7z m422 -7 c-10 -9 -11 -8 -5 6 3 10 9 15 12 12 3 -3 0 -11 -7 -18z m309 7
c0 -14 -3 -14 -15 -4 -8 7 -15 14 -15 16 0 2 7 4 15 4 8 0 15 -7 15 -16z m67
-3 c1 -14 -3 -18 -13 -14 -15 6 -18 16 -7 26 11 12 19 8 20 -12z m263 9 c0 -5
-2 -10 -4 -10 -3 0 -8 5 -11 10 -3 6 -1 10 4 10 6 0 11 -4 11 -10z m660 -11
c0 -6 -4 -7 -10 -4 -5 3 -10 11 -10 16 0 6 5 7 10 4 6 -3 10 -11 10 -16z m154
5 c3 -8 2 -12 -4 -9 -6 3 -10 10 -10 16 0 14 7 11 14 -7z m-2031 -11 c-7 -2
-19 -2 -25 0 -7 3 -2 5 12 5 14 0 19 -2 13 -5z m2037 -33 c0 -15 -6 -20 -27
-19 -24 2 -25 2 -5 6 12 2 22 11 22 19 0 8 2 14 5 14 3 0 5 -9 5 -20z m390 -5
c0 -14 -4 -25 -10 -25 -11 0 -14 33 -3 43 11 11 13 8 13 -18z m-995 -23 c-8
-8 -25 10 -19 20 4 6 9 5 15 -3 4 -7 6 -15 4 -17z m445 7 c0 -14 -16 -11 -29
5 -10 12 -8 13 8 9 12 -3 21 -9 21 -14z m-1955 1 c3 -5 -3 -10 -14 -10 -12 0
-21 5 -21 10 0 6 6 10 14 10 8 0 18 -4 21 -10z m220 0 c3 -5 1 -10 -4 -10 -6
0 -11 5 -11 10 0 6 2 10 4 10 3 0 8 -4 11 -10z m665 6 c0 -11 -19 -15 -25 -6
-3 5 1 10 9 10 9 0 16 -2 16 -4z m140 -6 c0 -5 -7 -10 -15 -10 -8 0 -15 5 -15
10 0 6 7 10 15 10 8 0 15 -4 15 -10z m105 0 c3 -5 1 -10 -4 -10 -6 0 -11 5
-11 10 0 6 2 10 4 10 3 0 8 -4 11 -10z m165 0 c0 -5 -9 -10 -19 -10 -11 0 -23
5 -26 10 -4 6 5 10 19 10 14 0 26 -4 26 -10z m60 0 c0 -5 -4 -10 -10 -10 -5 0
-10 5 -10 10 0 6 5 10 10 10 6 0 10 -4 10 -10z m47 -12 c-3 -8 -6 -5 -6 6 -1
11 2 17 5 13 3 -3 4 -12 1 -19z m613 12 c0 -5 -5 -10 -11 -10 -5 0 -7 5 -4 10
3 6 8 10 11 10 2 0 4 -4 4 -10z m-240 -55 c0 -19 -4 -35 -8 -35 -4 0 -9 16
-10 35 -2 19 2 35 8 35 5 0 10 -16 10 -35z m412 3 c-9 -9 -12 -7 -12 12 0 19
3 21 12 12 9 -9 9 -15 0 -24z m-2042 18 c0 -3 -4 -8 -10 -11 -5 -3 -10 -1 -10
4 0 6 5 11 10 11 6 0 10 -2 10 -4z m110 -11 c0 -8 -2 -15 -4 -15 -2 0 -6 7
-10 15 -3 8 -1 15 4 15 6 0 10 -7 10 -15z m480 5 c0 -5 -5 -10 -11 -10 -5 0
-7 5 -4 10 3 6 8 10 11 10 2 0 4 -4 4 -10z m833 -39 c-9 -12 -25 20 -18 36 7
16 9 15 15 -7 4 -14 5 -27 3 -29z m367 19 c5 0 11 6 13 13 3 6 6 2 6 -10 1
-17 -5 -23 -19 -23 -15 0 -20 6 -19 28 1 16 3 20 6 10 2 -10 8 -18 13 -18z
m418 8 c-2 -12 -9 -23 -16 -26 -8 -2 -10 2 -6 13 4 10 1 21 -7 26 -10 6 -8 9
9 9 18 0 23 -5 20 -22z m152 3 c0 -11 -4 -23 -10 -26 -6 -4 -10 5 -10 19 0 14
5 26 10 26 6 0 10 -9 10 -19z m-2520 -7 c0 -8 -4 -12 -10 -9 -5 3 -10 10 -10
16 0 5 5 9 10 9 6 0 10 -7 10 -16z m900 -10 c0 -21 -17 -17 -23 5 -3 14 -1 18
9 14 8 -3 14 -11 14 -19z m240 4 c0 -18 -2 -20 -9 -8 -6 8 -7 18 -5 22 9 14
14 9 14 -14z m65 -3 c0 -14 -3 -25 -7 -25 -5 0 -8 11 -8 25 0 14 3 25 8 25 4
0 7 -11 7 -25z m182 0 c-4 -8 -17 -14 -29 -14 l-23 2 23 4 c12 2 22 12 22 20
0 9 3 14 6 10 4 -3 4 -13 1 -22z m266 -18 c-4 -6 -12 -3 -20 8 -20 28 -16 41
7 20 11 -10 17 -22 13 -28z m216 2 c-7 -4 -16 -5 -19 -2 -3 3 1 8 8 10 6 3 13
12 13 21 1 14 2 13 6 -2 3 -10 -1 -22 -8 -27z m291 37 c0 -3 -4 -8 -10 -11 -5
-3 -10 -1 -10 4 0 6 5 11 10 11 6 0 10 -2 10 -4z m-1740 -21 c0 -8 -9 -15 -20
-15 -11 0 -20 5 -20 11 0 6 7 9 15 5 8 -3 15 -1 15 4 0 6 2 10 5 10 3 0 5 -7
5 -15z m104 0 c3 -8 1 -15 -4 -15 -6 0 -10 7 -10 15 0 8 2 15 4 15 2 0 6 -7
10 -15z m302 -12 c-10 -10 -19 5 -10 18 6 11 8 11 12 0 2 -7 1 -15 -2 -18z
m471 0 c-3 -3 -11 -2 -17 2 -9 6 -9 10 1 16 14 8 27 -7 16 -18z m427 12 c3 -8
1 -15 -4 -15 -6 0 -10 7 -10 15 0 8 2 15 4 15 2 0 6 -7 10 -15z m390 -2 c9 4
16 2 16 -4 0 -16 -43 -6 -47 11 -4 12 -3 13 5 1 6 -8 17 -11 26 -8z m-1934 -3
c0 -5 -10 -10 -22 -9 -22 0 -22 1 -3 9 11 5 21 9 23 9 1 1 2 -3 2 -9z m70 -5
c0 -2 -7 -5 -15 -9 -9 -3 -15 0 -15 9 0 9 6 12 15 9 8 -4 15 -7 15 -9z m1265
5 c3 -5 -1 -10 -10 -10 -9 0 -13 5 -10 10 3 6 8 10 10 10 2 0 7 -4 10 -10z
m676 -63 c-6 -6 -14 -7 -18 -2 -5 4 -2 10 5 12 6 3 13 12 13 21 1 14 2 14 6
-2 3 -10 0 -23 -6 -29z m-61 7 c0 -7 -9 -12 -20 -11 -12 1 -20 8 -20 18 0 12
6 16 20 12 11 -3 20 -11 20 -19z m-2114 -2 c1 -7 0 -8 -3 -2 -2 5 -9 8 -14 4
-5 -3 -9 0 -9 6 0 15 23 7 26 -8z m154 -3 c0 -5 -4 -9 -8 -9 -5 0 -9 7 -9 15
0 8 4 12 9 9 4 -3 8 -9 8 -15z m61 -2 c-10 -9 -11 -8 -5 6 3 10 9 15 12 12 3
-3 0 -11 -7 -18z m96 1 c-3 -8 -6 -5 -6 6 -1 11 2 17 5 13 3 -3 4 -12 1 -19z
m79 13 c11 9 14 8 14 -5 0 -9 -8 -16 -20 -16 -13 0 -20 6 -19 18 0 11 2 12 6
4 4 -10 8 -10 19 -1z m1410 -9 c1 -7 0 -8 -3 -2 -2 5 -9 8 -13 5 -5 -3 -12 0
-15 6 -5 7 -1 10 10 7 10 -1 20 -9 21 -16z m59 8 c3 -5 -1 -10 -10 -10 -9 0
-13 5 -10 10 3 6 8 10 10 10 2 0 7 -4 10 -10z m69 -5 c-4 -8 -8 -15 -10 -15
-2 0 -4 7 -4 15 0 8 4 15 10 15 5 0 7 -7 4 -15z m335 -14 c-15 -5 -22 6 -14
19 6 9 10 9 16 -1 5 -8 4 -15 -2 -18z m181 16 c0 -7 -9 -13 -20 -13 -22 0 -27
12 -7 19 21 9 27 8 27 -6z m52 -9 c-7 -7 -12 -8 -12 -2 0 6 3 14 7 17 3 4 9 5
12 2 2 -3 -1 -11 -7 -17z m-1307 2 c3 -5 1 -10 -4 -10 -6 0 -11 5 -11 10 0 6
2 10 4 10 3 0 8 -4 11 -10z m85 0 c0 -5 -2 -10 -4 -10 -3 0 -8 5 -11 10 -3 6
-1 10 4 10 6 0 11 -4 11 -10z m370 0 c0 -5 -5 -10 -11 -10 -5 0 -7 5 -4 10 3
6 8 10 11 10 2 0 4 -4 4 -10z m-1640 -40 c0 -5 -5 -10 -11 -10 -5 0 -7 5 -4
10 3 6 8 10 11 10 2 0 4 -4 4 -10z m79 -27 c-2 -24 -2 -25 -6 -5 -5 26 -20 29
-26 5 -4 -14 -5 -12 -6 5 -1 16 5 22 19 22 15 0 20 -6 19 -27z m141 6 c-7 -11
-14 -19 -16 -16 -7 7 7 37 17 37 6 0 5 -9 -1 -21z m87 -1 c-3 -8 -6 -5 -6 6
-1 11 2 17 5 13 3 -3 4 -12 1 -19z m503 6 c0 -8 -4 -12 -10 -9 -5 3 -10 10
-10 16 0 5 5 9 10 9 6 0 10 -7 10 -16z m170 -4 c0 -12 -7 -20 -17 -20 -14 0
-15 2 -4 9 7 5 10 14 7 20 -4 6 -2 11 3 11 6 0 11 -9 11 -20z m124 13 c-5 -5
-12 -12 -16 -18 -4 -6 -8 -2 -8 8 0 9 7 17 17 17 9 0 12 -3 7 -7z m22 -28 c-3
-8 -13 -15 -23 -15 -17 1 -17 1 0 11 9 5 17 18 18 27 0 11 2 12 6 4 3 -7 2
-19 -1 -27z m142 9 c0 -15 -4 -22 -10 -16 -5 5 -6 16 -2 25 9 23 12 21 12 -9z
m69 -6 c-3 -7 -5 -2 -5 12 0 14 2 19 5 13 2 -7 2 -19 0 -25z m306 12 c-3 -11
-9 -20 -13 -20 -5 0 -6 9 -3 20 3 11 9 20 13 20 5 0 6 -9 3 -20z m147 5 c0 -8
-4 -15 -9 -15 -5 0 -14 7 -21 15 -10 13 -9 15 9 15 12 0 21 -6 21 -15z m64 9
c23 -9 20 -34 -4 -34 -13 0 -20 7 -20 20 0 22 1 23 24 14z m82 -3 c-4 -5 0
-11 6 -14 7 -3 3 -4 -9 -4 -26 1 -32 27 -7 27 8 0 13 -4 10 -9z m69 -1 c-3 -5
-1 -10 5 -10 6 0 8 -5 4 -11 -4 -8 -9 -7 -15 2 -12 19 -11 29 2 29 5 0 7 -4 4
-10z m72 -27 c-3 -10 -5 -4 -5 12 0 17 2 24 5 18 2 -7 2 -21 0 -30z m111 12
c-3 -29 -7 -30 -34 -10 -18 13 -18 14 4 8 18 -4 21 -2 16 11 -3 9 -1 16 5 16
6 0 10 -11 9 -25z m245 19 c-7 -3 -9 -12 -6 -20 3 -8 0 -14 -6 -14 -12 0 -15
23 -4 33 3 4 11 7 17 6 7 0 6 -2 -1 -5z m-1564 -23 c8 -5 9 -11 3 -15 -5 -3
-15 1 -22 9 -14 16 -3 20 19 6z m171 -7 c0 -2 -7 -4 -15 -4 -8 0 -15 4 -15 10
0 5 7 7 15 4 8 -4 15 -8 15 -10z m395 -3 c-3 -6 -11 -11 -17 -11 -6 0 -6 6 2
15 14 17 26 13 15 -4z m835 9 c0 -5 -5 -10 -11 -10 -5 0 -7 5 -4 10 3 6 8 10
11 10 2 0 4 -4 4 -10z m-2024 -86 c-6 -15 -46 -20 -46 -5 0 5 9 7 20 4 17 -5
20 0 21 28 1 25 3 28 6 11 3 -13 2 -30 -1 -38z m197 41 c-3 -9 -8 -14 -10 -11
-3 3 -2 9 2 15 9 16 15 13 8 -4z m307 -5 c10 0 29 -6 42 -13 55 -28 78 -68 78
-132 0 -118 -150 -163 -219 -66 -28 39 -37 91 -21 122 15 30 94 107 98 97 2
-5 12 -8 22 -8z m890 6 c0 -11 10 -13 40 -9 52 7 102 -19 127 -64 11 -21 21
-29 27 -23 12 12 26 13 26 2 0 -5 -10 -14 -22 -20 l-23 -11 23 -7 c12 -3 22
-11 22 -16 0 -6 -7 -8 -15 -4 -10 3 -17 -3 -21 -21 -11 -44 -65 -90 -115 -98
-24 -4 -47 -13 -51 -19 -5 -7 -8 -6 -8 5 0 8 -12 26 -26 40 -58 54 -68 136
-22 179 11 10 17 23 13 29 -8 14 3 51 16 51 5 0 9 -6 9 -14z m307 -8 c-3 -8
-6 -5 -6 6 -1 11 2 17 5 13 3 -3 4 -12 1 -19z m80 0 c-3 -8 -6 -5 -6 6 -1 11
2 17 5 13 3 -3 4 -12 1 -19z m127 -3 c-5 -20 -2 -27 17 -33 20 -8 20 -9 5 -15
-10 -4 -22 -5 -27 -1 -10 6 -12 57 -2 67 12 12 14 7 7 -18z m-1779 5 c3 -5 1
-10 -4 -10 -6 0 -11 5 -11 10 0 6 2 10 4 10 3 0 8 -4 11 -10z m155 6 c0 -3 -4
-8 -10 -11 -5 -3 -10 -1 -10 4 0 6 5 11 10 11 6 0 10 -2 10 -4z m140 -22 c0
-21 -17 -17 -23 5 -3 14 -1 18 9 14 8 -3 14 -11 14 -19z m197 -6 c-3 -7 -5 -2
-5 12 0 14 2 19 5 13 2 -7 2 -19 0 -25z m88 21 c11 -16 1 -19 -13 -3 -7 8 -8
14 -3 14 5 0 13 -5 16 -11z m405 7 c0 -2 -7 -6 -15 -10 -8 -3 -15 -1 -15 4 0
6 7 10 15 10 8 0 15 -2 15 -4z m40 -16 c0 -11 -4 -20 -10 -20 -5 0 -10 9 -10
20 0 11 5 20 10 20 6 0 10 -9 10 -20z m30 -37 c-10 -16 -11 -15 -6 7 3 14 6
32 7 40 1 8 4 5 6 -7 2 -12 -1 -30 -7 -40z m70 53 c0 -3 -4 -8 -10 -11 -5 -3
-10 -1 -10 4 0 6 5 11 10 11 6 0 10 -2 10 -4z m30 -26 c0 -16 -4 -30 -9 -30
-4 0 -8 13 -7 30 1 39 16 39 16 0z m330 20 c0 -5 -4 -10 -10 -10 -5 0 -10 5
-10 10 0 6 5 10 10 10 6 0 10 -4 10 -10z m230 -21 c0 -11 -4 -17 -10 -14 -5 3
-10 15 -10 26 0 11 5 17 10 14 6 -3 10 -15 10 -26z m97 9 c-3 -8 -6 -5 -6 6
-1 11 2 17 5 13 3 -3 4 -12 1 -19z m77 7 c-4 -8 -10 -15 -15 -15 -5 0 -9 7 -9
15 0 8 7 15 15 15 9 0 12 -6 9 -15z m170 -23 c-4 -12 -11 -22 -16 -22 -6 0 -7
7 -4 16 3 9 6 23 6 32 0 10 3 13 10 6 5 -5 7 -19 4 -32z m-1839 18 c-3 -5 -11
-10 -16 -10 -6 0 -7 5 -4 10 3 6 11 10 16 10 6 0 7 -4 4 -10z m515 -2 c0 -4
-7 -8 -15 -8 -8 0 -15 4 -15 8 0 5 7 9 15 9 8 0 15 -4 15 -9z m717 -25 c-3
-10 -5 -4 -5 12 0 17 2 24 5 18 2 -7 2 -21 0 -30z m486 17 c-3 -11 -7 -20 -9
-20 -2 0 -4 9 -4 20 0 11 4 20 9 20 5 0 7 -9 4 -20z m87 -1 c0 -5 -4 -9 -10
-9 -5 0 -10 7 -10 16 0 8 5 12 10 9 6 -3 10 -10 10 -16z m-1210 1 c0 -5 -4
-10 -10 -10 -5 0 -10 5 -10 10 0 6 5 10 10 10 6 0 10 -4 10 -10z m748 -16 c7
4 12 2 12 -4 0 -20 -45 -6 -48 15 -4 20 -3 20 11 1 7 -10 19 -16 25 -12z
m-1798 1 c0 -8 -4 -15 -10 -15 -5 0 -10 7 -10 15 0 8 5 15 10 15 6 0 10 -7 10
-15z m819 -12 c2 -2 -5 -3 -16 -3 -11 0 -20 7 -20 15 0 12 3 12 16 3 9 -7 18
-14 20 -15z m401 6 c0 -5 -7 -9 -15 -9 -8 0 -15 7 -15 15 0 9 6 12 15 9 8 -4
15 -10 15 -15z m-1280 -5 c0 -2 -7 -4 -15 -4 -8 0 -15 4 -15 10 0 5 7 7 15 4
8 -4 15 -8 15 -10z m310 4 c0 -4 -9 -8 -20 -8 -11 0 -20 4 -20 8 0 4 9 8 20 8
11 0 20 -4 20 -8z m210 2 c0 -5 -8 -10 -17 -10 -15 0 -16 2 -3 10 19 12 20 12
20 0z m450 0 c0 -5 -7 -10 -15 -10 -8 0 -15 5 -15 10 0 6 7 10 15 10 8 0 15
-4 15 -10z m70 0 c0 -5 -8 -10 -17 -10 -15 0 -16 2 -3 10 19 12 20 12 20 0z
m100 6 c0 -3 -4 -8 -10 -11 -5 -3 -10 -1 -10 4 0 6 5 11 10 11 6 0 10 -2 10
-4z m275 -6 c3 -5 1 -10 -4 -10 -6 0 -11 5 -11 10 0 6 2 10 4 10 3 0 8 -4 11
-10z m365 0 c0 -5 -5 -10 -11 -10 -5 0 -7 5 -4 10 3 6 8 10 11 10 2 0 4 -4 4
-10z m162 -5 c0 -5 -5 -11 -11 -13 -6 -2 -11 4 -11 13 0 9 5 15 11 13 6 -2 11
-8 11 -13z m243 5 c3 -5 -1 -10 -10 -10 -9 0 -13 5 -10 10 3 6 8 10 10 10 2 0
7 -4 10 -10z m85 1 c0 -6 -4 -13 -10 -16 -5 -3 -10 1 -10 9 0 9 5 16 10 16 6
0 10 -4 10 -9z m-1080 -31 c0 -5 -2 -10 -4 -10 -3 0 -8 5 -11 10 -3 6 -1 10 4
10 6 0 11 -4 11 -10z m-235 -22 c6 -4 2 -8 -7 -8 -10 0 -18 7 -18 17 0 9 3 12
8 7 4 -5 12 -12 17 -16z m-895 2 c0 -5 -2 -10 -4 -10 -3 0 -8 5 -11 10 -3 6
-1 10 4 10 6 0 11 -4 11 -10z m90 -5 c11 -13 10 -14 -4 -9 -9 3 -16 10 -16 15
0 13 6 11 20 -6z m167 -11 c-7 -7 -37 7 -37 17 0 6 9 5 21 -1 11 -7 19 -14 16
-16z m893 16 c0 -5 -5 -10 -11 -10 -5 0 -7 5 -4 10 3 6 8 10 11 10 2 0 4 -4 4
-10z m660 0 c0 -5 -4 -10 -10 -10 -5 0 -10 5 -10 10 0 6 5 10 10 10 6 0 10 -4
10 -10z m140 -5 c0 -8 -2 -15 -4 -15 -2 0 -6 7 -10 15 -3 8 -1 15 4 15 6 0 10
-7 10 -15z m100 5 c0 -5 -7 -10 -16 -10 -8 0 -12 5 -9 10 3 6 10 10 16 10 5 0
9 -4 9 -10z m160 2 c0 -14 -11 -21 -26 -15 -8 3 -11 9 -8 14 7 11 34 12 34 1z
m70 -2 c0 -5 -7 -7 -15 -4 -8 4 -15 8 -15 10 0 2 7 4 15 4 8 0 15 -4 15 -10z
m-2350 -50 c-10 -7 -11 -10 -2 -10 6 0 12 -10 12 -22 0 -23 -1 -23 -14 2 -12
24 -2 60 13 45 3 -3 -1 -10 -9 -15z m227 -12 c-3 -8 -6 -5 -6 6 -1 11 2 17 5
13 3 -3 4 -12 1 -19z m223 12 c0 -5 -5 -10 -11 -10 -5 0 -7 5 -4 10 3 6 8 10
11 10 2 0 4 -4 4 -10z m81 -2 c0 -7 2 -21 4 -30 2 -10 -3 -18 -11 -18 -17 0
-18 16 -1 23 7 4 3 9 -11 13 -18 5 -20 9 -10 15 19 12 28 11 29 -3z m829 2 c0
-5 -4 -10 -10 -10 -5 0 -10 5 -10 10 0 6 5 10 10 10 6 0 10 -4 10 -10z m70 0
c0 -5 -8 -10 -17 -10 -15 0 -16 2 -3 10 19 12 20 12 20 0z m450 0 c0 -5 -5
-10 -11 -10 -5 0 -7 5 -4 10 3 6 8 10 11 10 2 0 4 -4 4 -10z m-1720 -4 c0 -2
-7 -6 -15 -10 -8 -3 -15 -1 -15 4 0 6 7 10 15 10 8 0 15 -2 15 -4z m733 -3
c-7 -2 -19 -2 -25 0 -7 3 -2 5 12 5 14 0 19 -2 13 -5z m152 -17 c0 -11 -6 -20
-13 -22 -7 -1 -8 0 -2 3 16 8 12 36 -5 29 -8 -3 -15 -1 -15 5 0 6 8 9 18 7 9
-2 17 -12 17 -22z m288 -26 c-8 -9 -21 24 -15 39 5 12 8 10 12 -9 4 -14 5 -27
3 -30z m157 30 c0 -11 -4 -20 -10 -20 -5 0 -10 9 -10 20 0 11 5 20 10 20 6 0
10 -9 10 -20z m621 7 c-7 -7 -14 -8 -21 -1 -6 6 -2 10 12 11 16 2 18 -1 9 -10z
m219 -2 c0 -8 -4 -15 -10 -15 -5 0 -10 7 -10 15 0 8 5 15 10 15 6 0 10 -7 10
-15z m-2253 -17 c-3 -8 -6 -5 -6 6 -1 11 2 17 5 13 3 -3 4 -12 1 -19z m2193 2
c0 -11 -7 -20 -15 -20 -13 0 -13 3 -3 20 7 11 14 20 15 20 2 0 3 -9 3 -20z
m-1365 -9 c-3 -6 -16 -11 -28 -11 -21 0 -21 1 3 13 27 15 36 14 25 -2z m210
-2 c-6 -29 -15 -37 -15 -12 0 17 8 33 16 33 2 0 1 -10 -1 -21z m325 6 c0 -9
-9 -15 -22 -15 -21 0 -21 0 -2 15 24 18 24 18 24 0z m352 -17 c-9 -9 -12 -7
-12 12 0 19 3 21 12 12 9 -9 9 -15 0 -24z m-1622 12 c0 -5 -8 -10 -17 -10 -15
0 -16 2 -3 10 19 12 20 12 20 0z m1710 0 c0 -5 -5 -10 -11 -10 -5 0 -7 5 -4
10 3 6 8 10 11 10 2 0 4 -4 4 -10z m150 0 c0 -5 -5 -10 -11 -10 -5 0 -7 5 -4
10 3 6 8 10 11 10 2 0 4 -4 4 -10z m90 0 c0 -5 -8 -10 -17 -10 -15 0 -16 2 -3
10 19 12 20 12 20 0z m-1803 -6 c-3 -3 -12 -4 -19 -1 -8 3 -5 6 6 6 11 1 17
-2 13 -5z m896 -1 c-7 -2 -19 -2 -25 0 -7 3 -2 5 12 5 14 0 19 -2 13 -5z m294
-60 c-3 -10 -5 -4 -5 12 0 17 2 24 5 18 2 -7 2 -21 0 -30z m363 21 c0 -2 -7
-4 -15 -4 -8 0 -15 4 -15 10 0 5 7 7 15 4 8 -4 15 -8 15 -10z m-1362 -37 c13
-4 12 -5 -4 -6 -24 -1 -39 24 -27 42 5 8 9 4 11 -10 2 -12 11 -24 20 -26z m22
27 c0 -8 -4 -12 -10 -9 -5 3 -10 10 -10 16 0 5 5 9 10 9 6 0 10 -7 10 -16z
m530 10 c0 -8 -19 -13 -24 -6 -3 5 1 9 9 9 8 0 15 -2 15 -3z m160 -4 c0 -5 -2
-10 -4 -10 -3 0 -8 5 -11 10 -3 6 -1 10 4 10 6 0 11 -4 11 -10z m815 0 c3 -5
1 -18 -4 -27 -6 -10 -11 -13 -11 -6 0 6 -3 18 -6 27 -7 17 11 22 21 6z m85
-12 c0 -19 -2 -20 -10 -8 -13 19 -13 30 0 30 6 0 10 -10 10 -22z m-1953 -10
c-3 -8 -6 -5 -6 6 -1 11 2 17 5 13 3 -3 4 -12 1 -19z m940 -15 c-3 -10 -5 -4
-5 12 0 17 2 24 5 18 2 -7 2 -21 0 -30z m290 15 c-3 -8 -6 -5 -6 6 -1 11 2 17
5 13 3 -3 4 -12 1 -19z m670 -10 c-3 -7 -5 -2 -5 12 0 14 2 19 5 13 2 -7 2
-19 0 -25z m-1980 0 c-3 -8 -6 -5 -6 6 -1 11 2 17 5 13 3 -3 4 -12 1 -19z
m153 12 c0 -5 -5 -10 -11 -10 -5 0 -7 5 -4 10 3 6 8 10 11 10 2 0 4 -4 4 -10z
m210 -5 c0 -8 -4 -15 -10 -15 -5 0 -7 7 -4 15 4 8 8 15 10 15 2 0 4 -7 4 -15z
m1300 5 c0 -5 -2 -10 -4 -10 -3 0 -8 5 -11 10 -3 6 -1 10 4 10 6 0 11 -4 11
-10z m-700 -15 c-7 -8 -17 -15 -23 -15 -6 0 -2 7 9 15 25 19 30 19 14 0z m390
5 c0 -5 -5 -10 -11 -10 -5 0 -7 5 -4 10 3 6 8 10 11 10 2 0 4 -4 4 -10z m110
0 c0 -5 -4 -10 -10 -10 -5 0 -10 5 -10 10 0 6 5 10 10 10 6 0 10 -4 10 -10z
m-343 -16 c-3 -3 -12 -4 -19 -1 -8 3 -5 6 6 6 11 1 17 -2 13 -5z m-977 -35 c0
-11 -4 -17 -10 -14 -5 3 -10 13 -10 21 0 8 5 14 10 14 6 0 10 -9 10 -21z m437
-11 c-3 -7 -5 -2 -5 12 0 14 2 19 5 13 2 -7 2 -19 0 -25z m890 -5 c-3 -10 -5
-4 -5 12 0 17 2 24 5 18 2 -7 2 -21 0 -30z m-1393 4 c-6 -16 -34 -12 -34 5 0
5 4 7 9 3 5 -3 13 0 16 6 10 15 17 5 9 -14z m166 8 c0 -8 -4 -15 -10 -15 -5 0
-7 7 -4 15 4 8 8 15 10 15 2 0 4 -7 4 -15z m114 0 c3 -8 1 -15 -4 -15 -6 0
-10 7 -10 15 0 8 2 15 4 15 2 0 6 -7 10 -15z m156 -2 c0 -7 -6 -13 -13 -13 -8
0 -14 6 -14 13 0 8 6 14 14 14 7 0 13 -6 13 -14z m766 -19 c-3 -8 -10 -12 -16
-9 -7 4 -6 14 2 28 12 24 24 8 14 -19z m116 14 c-7 -7 -12 -8 -12 -2 0 14 12
26 19 19 2 -3 -1 -11 -7 -17z m32 -10 c-3 -4 -11 -8 -17 -7 -9 0 -9 2 0 5 7 3
9 13 6 22 -4 14 -3 14 5 2 6 -8 8 -18 6 -22z m203 17 c3 -9 3 -18 1 -21 -9 -9
-38 8 -38 22 0 19 29 18 37 -1z m163 -5 c0 -11 -7 -20 -15 -20 -13 0 -14 4 -5
20 6 11 13 20 15 20 3 0 5 -9 5 -20z m-1390 0 c0 -5 -5 -10 -11 -10 -5 0 -7 5
-4 10 3 6 8 10 11 10 2 0 4 -4 4 -10z m250 0 c0 -5 -5 -10 -11 -10 -5 0 -7 5
-4 10 3 6 8 10 11 10 2 0 4 -4 4 -10z m70 6 c0 -2 -7 -6 -15 -10 -8 -3 -15 -1
-15 4 0 6 7 10 15 10 8 0 15 -2 15 -4z m80 -12 c0 -8 -5 -12 -10 -9 -6 4 -8
11 -5 16 9 14 15 11 15 -7z m320 8 c0 -5 -7 -9 -15 -9 -8 0 -12 4 -9 9 3 4 9
8 15 8 5 0 9 -4 9 -8z m406 -19 c-10 -10 -19 5 -10 18 6 11 8 11 12 0 2 -7 1
-15 -2 -18z m504 23 c0 -2 -7 -9 -15 -16 -13 -11 -14 -10 -9 4 5 14 24 23 24
12z m-100 -16 c0 -5 -4 -10 -10 -10 -5 0 -10 5 -10 10 0 6 5 10 10 10 6 0 10
-4 10 -10z m41 -13 c-10 -9 -11 -8 -5 6 3 10 9 15 12 12 3 -3 0 -11 -7 -18z
m-1531 -41 c0 -8 -4 -17 -9 -20 -10 -7 -23 19 -14 28 11 11 23 6 23 -8z m135
4 c3 -6 -1 -7 -9 -4 -18 7 -21 14 -7 14 6 0 13 -4 16 -10z m545 0 c0 -5 -5
-10 -11 -10 -5 0 -7 5 -4 10 3 6 8 10 11 10 2 0 4 -4 4 -10z m830 -16 c0 -8
-5 -12 -10 -9 -6 4 -8 11 -5 16 9 14 15 11 15 -7z m-605 -4 c3 -5 1 -10 -4
-10 -6 0 -11 5 -11 10 0 6 2 10 4 10 3 0 8 -4 11 -10z m-1105 -46 c0 -12 -4
-12 -20 -2 -11 7 -20 16 -20 19 0 4 9 5 20 2 11 -3 20 -12 20 -19z m710 22 c0
-3 -4 -8 -10 -11 -5 -3 -10 -1 -10 4 0 6 5 11 10 11 6 0 10 -2 10 -4z m838
-29 c3 -20 -1 -27 -14 -27 -14 0 -15 3 -6 12 18 18 15 38 -5 31 -11 -4 -14 -3
-9 6 12 19 31 7 34 -22z m129 11 c-3 -8 -6 -5 -6 6 -1 11 2 17 5 13 3 -3 4
-12 1 -19z m-1227 -15 c-1 -24 -2 -26 -11 -10 -5 9 -7 22 -4 27 10 17 15 11
15 -17z m28 -9 c-3 -14 -5 -12 -10 9 -3 19 -2 25 4 19 6 -6 8 -18 6 -28z m82
11 c0 -28 -15 -34 -24 -9 -3 8 -2 12 4 9 6 -3 10 1 10 9 0 9 2 16 5 16 3 0 5
-11 5 -25z m82 -17 c-6 -6 -7 0 -4 19 5 21 7 23 10 9 2 -10 0 -22 -6 -28z
m-545 10 c-3 -8 -6 -5 -6 6 -1 11 2 17 5 13 3 -3 4 -12 1 -19z m1000 0 c-3 -8
-6 -5 -6 6 -1 11 2 17 5 13 3 -3 4 -12 1 -19z m290 0 c-3 -8 -6 -5 -6 6 -1 11
2 17 5 13 3 -3 4 -12 1 -19z m233 1 c0 -14 -17 -10 -23 5 -4 10 -1 13 9 9 7
-3 14 -9 14 -14z m-1425 1 c3 -5 1 -10 -4 -10 -6 0 -11 5 -11 10 0 6 2 10 4
10 3 0 8 -4 11 -10z m409 -6 c3 -8 2 -12 -4 -9 -6 3 -10 10 -10 16 0 14 7 11
14 -7z m581 -3 c-8 -13 -35 -15 -35 -2 0 5 8 11 18 13 21 5 26 2 17 -11z
m-395 -1 c0 -5 -4 -10 -10 -10 -5 0 -10 5 -10 10 0 6 5 10 10 10 6 0 10 -4 10
-10z m175 0 c3 -5 -1 -10 -10 -10 -9 0 -13 5 -10 10 3 6 8 10 10 10 2 0 7 -4
10 -10z m285 0 c0 -5 -4 -10 -10 -10 -5 0 -10 5 -10 10 0 6 5 10 10 10 6 0 10
-4 10 -10z m-1130 -40 c0 -5 -2 -10 -4 -10 -3 0 -8 5 -11 10 -3 6 -1 10 4 10
6 0 11 -4 11 -10z m79 -24 c-1 -16 -2 -17 -6 -3 -5 19 -23 24 -23 5 0 -6 -3
-9 -6 -5 -4 3 -4 13 -1 21 9 22 37 8 36 -18z m898 12 c-3 -8 -6 -5 -6 6 -1 11
2 17 5 13 3 -3 4 -12 1 -19z m-610 -3 c9 -24 -1 -27 -15 -5 -8 13 -8 20 -2 20
6 0 13 -7 17 -15z m217 0 c-4 -8 -8 -15 -10 -15 -2 0 -4 7 -4 15 0 8 4 15 10
15 5 0 7 -7 4 -15z m333 -17 c-3 -7 -5 -2 -5 12 0 14 2 19 5 13 2 -7 2 -19 0
-25z m-700 0 c-3 -8 -6 -5 -6 6 -1 11 2 17 5 13 3 -3 4 -12 1 -19z m1118 11
c11 -16 1 -19 -13 -3 -7 8 -8 14 -3 14 5 0 13 -5 16 -11z m-505 -20 c0 -6 -4
-7 -10 -4 -5 3 -10 11 -10 16 0 6 5 7 10 4 6 -3 10 -11 10 -16z m433 4 c-7 -2
-19 -2 -25 0 -7 3 -2 5 12 5 14 0 19 -2 13 -5z m-1041 -55 c-7 -7 -12 -8 -12
-2 0 6 3 14 7 17 3 4 9 5 12 2 2 -3 -1 -11 -7 -17z m138 2 c0 -5 -2 -10 -4
-10 -3 0 -8 5 -11 10 -3 6 -1 10 4 10 6 0 11 -4 11 -10z m213 -15 c-3 -9 -8
-14 -10 -11 -3 3 -2 9 2 15 9 16 15 13 8 -4z m177 11 c0 -2 -7 -7 -16 -10 -8
-3 -12 -2 -9 4 6 10 25 14 25 6z m10 -36 c0 -11 -4 -20 -9 -20 -5 0 -7 9 -4
20 3 11 7 20 9 20 2 0 4 -9 4 -20z m295 10 c3 -5 1 -10 -4 -10 -6 0 -11 5 -11
10 0 6 2 10 4 10 3 0 8 -4 11 -10z m-595 -10 c0 -5 -4 -10 -10 -10 -5 0 -10 5
-10 10 0 6 5 10 10 10 6 0 10 -4 10 -10z m150 0 c0 -5 -10 -10 -22 -9 -22 0
-22 1 -3 9 11 5 21 9 23 9 1 1 2 -3 2 -9z m275 0 c3 -5 -1 -10 -9 -10 -9 0
-16 5 -16 10 0 6 4 10 9 10 6 0 13 -4 16 -10z m95 0 c0 -5 -4 -10 -10 -10 -5
0 -10 5 -10 10 0 6 5 10 10 10 6 0 10 -4 10 -10z"/>
<path d="M2427 3254 c-4 -4 -7 -14 -7 -23 0 -11 3 -12 11 -4 6 6 10 16 7 23
-2 6 -7 8 -11 4z"/>
<path d="M1061 2123 c-13 -2 -26 -14 -29 -25 -3 -13 -7 -16 -12 -8 -5 8 -18 5
-43 -10 -36 -21 -48 -40 -26 -40 5 0 7 -5 4 -10 -5 -8 -11 -8 -19 -1 -8 7 -22
4 -44 -9 -34 -21 -40 -35 -19 -43 6 -2 8 -8 4 -13 -5 -5 -14 -1 -22 9 -10 13
-15 15 -22 5 -6 -8 -13 -155 -17 -358 -4 -190 -9 -374 -11 -410 -2 -36 1 -119
7 -185 6 -66 11 -126 11 -132 1 -20 17 -15 18 5 1 9 1 20 0 24 0 4 6 5 15 1
11 -4 12 -8 4 -13 -7 -5 -3 -9 12 -13 22 -6 22 -7 3 -21 -11 -8 -22 -13 -26
-11 -3 2 -6 -2 -6 -9 0 -8 9 -11 24 -8 16 3 23 0 23 -11 0 -8 15 -22 34 -31
19 -9 36 -24 39 -34 3 -12 6 -8 11 13 16 64 24 72 24 22 0 -27 -5 -47 -11 -47
-7 0 -1 -7 11 -16 12 -8 27 -12 32 -9 6 3 10 -3 10 -14 0 -12 4 -21 10 -21 5
0 9 5 7 11 -1 6 4 14 12 17 10 3 13 -2 9 -22 -3 -15 0 -31 8 -37 11 -9 14 -8
14 5 0 10 5 14 10 11 18 -11 10 -35 -15 -45 -32 -12 -32 -24 0 -18 25 5 30 -4
26 -40 -1 -6 3 -12 9 -12 5 0 10 -5 10 -11 0 -6 -7 -9 -15 -6 -8 4 -17 1 -21
-5 -4 -6 -3 -8 2 -5 14 8 30 -5 39 -32 4 -14 3 -21 -2 -18 -5 4 -10 0 -10 -8
0 -10 4 -12 12 -5 9 7 16 6 25 -5 7 -8 19 -15 27 -15 8 0 12 -3 10 -7 -3 -5
-1 -17 3 -28 6 -15 8 -9 8 20 -2 130 7 185 17 104 9 -72 27 -139 35 -134 5 3
7 38 4 78 -3 50 -1 77 8 90 11 15 13 7 11 -53 -1 -44 2 -69 9 -67 6 1 16 -14
23 -33 10 -31 16 -35 42 -33 21 2 33 -2 37 -13 5 -12 10 -13 19 -6 14 12 57 5
57 -9 0 -5 -7 -9 -15 -9 -18 0 -20 -36 -2 -43 7 -4 6 -6 -5 -6 -9 -1 -18 5
-21 12 -9 25 -16 0 -8 -29 7 -21 10 -24 11 -9 l1 20 9 -20 c6 -13 9 -15 9 -5
1 12 3 13 10 1 5 -7 6 -32 4 -55 -5 -39 -4 -40 11 -21 13 17 15 18 16 3 0 -9
-5 -20 -10 -23 -6 -3 -10 -13 -10 -21 0 -8 5 -12 10 -9 6 4 8 11 5 16 -4 5 -1
9 6 9 7 0 10 11 7 30 -3 16 -1 30 4 30 4 0 8 8 8 17 0 10 3 13 8 7 5 -5 6 -42
3 -81 -5 -57 -3 -73 7 -73 7 0 11 4 8 9 -4 5 -3 17 1 28 6 16 8 15 13 -7 4
-17 1 -29 -9 -37 -13 -10 -13 -12 -2 -13 8 0 20 8 27 18 8 10 13 12 14 5 0 -7
7 -10 17 -6 10 4 14 2 10 -5 -4 -6 1 -13 10 -15 11 -3 5 -5 -12 -6 -21 -1 -26
-4 -16 -10 7 -5 31 -8 52 -7 28 1 38 -3 34 -11 -2 -7 0 -13 5 -13 6 0 10 6 10
13 0 6 5 4 11 -5 16 -28 30 -22 19 8 -6 14 -10 32 -10 41 0 13 3 13 15 3 8 -7
13 -16 10 -20 -3 -5 -1 -20 5 -34 7 -20 16 -25 36 -24 24 2 25 5 22 45 -2 24
0 43 3 43 9 0 21 -79 14 -91 -4 -5 2 -10 12 -10 10 -1 31 -3 48 -5 16 -2 36 2
44 9 10 8 13 8 8 1 -5 -9 13 -12 63 -12 46 0 70 4 70 12 0 8 2 8 8 0 10 -17
62 -15 62 2 0 8 5 14 10 14 6 0 10 -6 10 -14 0 -10 9 -14 26 -13 18 2 30 11
39 32 l14 30 -6 -32 c-4 -26 -2 -33 11 -33 9 0 16 7 16 15 0 21 47 19 59 -2 9
-17 10 -17 16 0 9 21 25 23 25 2 0 -9 9 -15 25 -15 22 0 25 4 26 38 l1 37 10
-30 c6 -17 16 -33 22 -37 17 -12 37 -9 35 5 -1 6 -1 23 0 37 2 23 4 21 23 -15
18 -33 23 -36 26 -20 4 22 30 55 43 55 4 0 14 -6 21 -13 14 -13 58 -21 57 -9
-4 27 1 34 17 22 12 -11 15 -11 12 1 -2 8 2 13 9 12 9 -2 9 5 2 27 -6 16 -9
39 -6 52 3 20 5 19 12 -10 4 -18 12 -35 18 -39 6 -4 8 0 5 9 -4 8 -2 21 3 29
8 12 10 12 18 0 7 -11 11 -4 17 25 l7 39 13 -32 c14 -33 37 -55 33 -32 -5 43
7 55 36 37 6 -4 17 -3 25 3 8 5 11 9 5 9 -5 0 5 13 23 30 18 16 40 30 48 30 8
0 13 6 12 13 -2 8 8 11 27 10 28 -2 29 -1 11 12 -10 8 -22 13 -25 11 -4 -3 -5
14 -2 37 l3 41 15 -27 c18 -34 31 -34 39 1 8 38 25 82 34 87 4 3 4 -12 -1 -33
-12 -51 -12 -72 0 -53 7 11 10 10 14 -5 3 -13 5 -10 6 10 2 52 68 131 68 81 0
-8 -4 -15 -8 -15 -4 0 -9 -7 -12 -14 -4 -10 -1 -13 8 -10 7 3 16 12 19 20 4 9
13 13 23 10 10 -3 25 -1 33 4 11 7 11 10 2 10 -7 0 -11 4 -7 10 3 5 12 7 19 4
10 -4 13 5 11 33 -2 21 1 47 5 58 8 19 9 19 9 -2 1 -16 6 -20 21 -16 11 3 18
8 16 12 -3 4 5 7 17 8 12 0 17 -1 10 -4 -7 -2 -9 -11 -6 -19 8 -20 23 -17 23
5 0 10 7 22 16 25 9 4 14 9 11 13 -4 3 0 11 9 18 15 10 15 13 0 27 -9 9 -16
24 -16 34 0 14 3 14 16 3 13 -11 14 -9 9 14 -4 16 -3 27 3 27 12 0 22 -24 22
-51 0 -10 5 -19 11 -19 6 0 8 9 4 21 -5 15 -4 19 4 15 7 -5 11 2 11 19 0 27
39 52 51 33 4 -6 9 -6 14 1 5 9 11 9 23 -1 10 -7 14 -9 10 -4 -4 4 1 17 11 28
10 10 21 37 25 58 8 51 26 62 26 16 0 -20 5 -36 11 -36 6 0 9 8 6 19 -3 14 0
17 14 14 15 -4 19 0 19 22 0 19 6 28 21 32 14 4 19 12 16 23 -6 24 3 36 36 44
21 5 27 3 27 -10 0 -23 9 -12 16 17 9 48 23 450 24 696 0 192 -3 253 -12 256
-10 4 -10 6 0 6 16 1 16 53 0 72 -7 9 -37 33 -65 53 -38 27 -53 33 -53 22 0
-8 -4 -17 -9 -20 -4 -3 -6 5 -4 17 4 18 -5 27 -46 50 -28 15 -74 30 -103 33
-53 6 -138 -9 -138 -25 0 -5 -17 -16 -37 -25 -21 -9 -57 -29 -80 -44 -101 -65
-224 -137 -296 -174 -68 -35 -77 -42 -71 -61 6 -21 6 -21 -8 -3 -14 18 -17 18
-72 -19 -40 -26 -55 -42 -51 -53 3 -8 0 -19 -7 -24 -19 -12 -28 -10 -28 7 0
21 -18 19 -32 -5 -7 -11 -20 -20 -29 -20 -9 0 -28 -9 -42 -20 -14 -11 -55 -34
-91 -51 -50 -23 -66 -36 -66 -51 0 -17 -3 -18 -14 -9 -12 10 -20 9 -40 -4 -14
-10 -26 -23 -26 -30 0 -9 -17 -12 -57 -11 -32 1 -61 -3 -65 -8 -4 -6 -8 -2 -8
10 0 15 -12 28 -40 43 -22 11 -40 18 -40 14 0 -4 -6 0 -12 9 -7 9 -40 31 -73
49 -33 18 -71 39 -85 46 -14 8 -65 41 -115 74 -49 32 -132 80 -184 105 -51 26
-115 62 -142 81 -28 19 -55 31 -62 27 -7 -4 -9 -4 -5 1 5 5 -8 19 -28 33 -30
20 -38 22 -46 11 -8 -11 -9 -11 -5 2 4 12 -19 30 -86 69 -81 47 -97 53 -156
56 -36 1 -77 0 -90 -3z m45 -38 c-7 -20 -36 -19 -36 1 0 14 3 14 15 4 13 -10
15 -9 16 11 0 13 3 18 6 11 3 -7 2 -19 -1 -27z m2314 6 c0 -14 -5 -18 -20 -14
-11 3 -20 12 -20 19 0 8 9 14 20 14 13 0 20 -7 20 -19z m70 9 c0 -5 -5 -10
-11 -10 -5 0 -7 5 -4 10 3 6 8 10 11 10 2 0 4 -4 4 -10z m80 -10 c0 -5 -5 -10
-11 -10 -5 0 -7 5 -4 10 3 6 8 10 11 10 2 0 4 -4 4 -10z m-70 -53 c0 -8 -7
-14 -15 -14 -25 0 -17 17 13 26 1 1 2 -5 2 -12z m-2390 -7 c0 -5 -2 -10 -4
-10 -3 0 -8 5 -11 10 -3 6 -1 10 4 10 6 0 11 -4 11 -10z m80 0 c0 -5 -2 -10
-4 -10 -3 0 -8 5 -11 10 -3 6 -1 10 4 10 6 0 11 -4 11 -10z m2205 0 c3 -5 1
-10 -4 -10 -6 0 -11 5 -11 10 0 6 2 10 4 10 3 0 8 -4 11 -10z m35 0 c0 -5 -2
-10 -4 -10 -3 0 -8 5 -11 10 -3 6 -1 10 4 10 6 0 11 -4 11 -10z m-2203 -62
c-3 -8 -6 -5 -6 6 -1 11 2 17 5 13 3 -3 4 -12 1 -19z m2113 2 c7 22 8 22 9 4
1 -11 -2 -23 -5 -27 -12 -12 -34 6 -33 27 0 19 1 19 11 -4 l11 -25 7 25z m307
-5 c-4 -8 -12 -15 -19 -14 -10 0 -10 2 0 6 6 2 12 12 12 21 0 8 3 13 6 9 4 -3
4 -13 1 -22z m-2457 0 c0 -8 -4 -15 -10 -15 -5 0 -7 7 -4 15 4 8 8 15 10 15 2
0 4 -7 4 -15z m1984 0 c3 -8 1 -15 -4 -15 -6 0 -10 7 -10 15 0 8 2 15 4 15 2
0 6 -7 10 -15z m86 0 c0 -8 -7 -15 -15 -15 -13 0 -14 3 -3 15 16 18 18 18 18
0z m-160 -45 c0 -5 -5 -10 -11 -10 -5 0 -7 5 -4 10 3 6 8 10 11 10 2 0 4 -4 4
-10z m-2235 -26 c-9 -9 -19 -13 -23 -10 -3 4 0 11 8 16 24 15 33 11 15 -6z
m85 6 c0 -5 -5 -10 -11 -10 -5 0 -7 5 -4 10 3 6 8 10 11 10 2 0 4 -4 4 -10z
m580 0 c0 -5 -5 -10 -11 -10 -5 0 -7 5 -4 10 3 6 8 10 11 10 2 0 4 -4 4 -10z
m2185 1 c3 -5 1 -12 -5 -16 -5 -3 -10 1 -10 9 0 18 6 21 15 7z m-2695 -11 c0
-5 -2 -10 -4 -10 -3 0 -8 5 -11 10 -3 6 -1 10 4 10 6 0 11 -4 11 -10z m2010
-25 c0 -2 -9 -9 -20 -15 -16 -9 -18 -8 -14 5 5 13 34 22 34 10z m-2150 -20 c0
-8 -4 -15 -10 -15 -5 0 -10 7 -10 15 0 8 5 15 10 15 6 0 10 -7 10 -15z m70 -5
c0 -5 -2 -10 -4 -10 -3 0 -8 5 -11 10 -3 6 -1 10 4 10 6 0 11 -4 11 -10z m635
0 c3 -5 1 -10 -4 -10 -6 0 -11 5 -11 10 0 6 2 10 4 10 3 0 8 -4 11 -10z m80 0
c3 -5 1 -10 -4 -10 -6 0 -11 5 -11 10 0 6 2 10 4 10 3 0 8 -4 11 -10z m1266
-13 c-10 -9 -11 -8 -5 6 3 10 9 15 12 12 3 -3 0 -11 -7 -18z m574 13 c3 -5 -1
-10 -9 -10 -9 0 -16 5 -16 10 0 6 4 10 9 10 6 0 13 -4 16 -10z m-2395 -50 c0
-16 -5 -30 -11 -30 -6 0 -9 7 -5 15 3 8 1 15 -4 15 -5 0 -7 7 -4 15 10 25 24
17 24 -15z m1891 -11 c-9 -22 -10 -22 -10 -3 -1 11 2 24 6 27 12 12 14 0 4
-24z m-2124 15 c-3 -3 -12 -4 -19 -1 -8 3 -5 6 6 6 11 1 17 -2 13 -5z m67 -10
c3 -8 2 -12 -4 -9 -6 3 -10 10 -10 16 0 14 7 11 14 -7z m503 -6 c-3 -8 -6 -5
-6 6 -1 11 2 17 5 13 3 -3 4 -12 1 -19z m88 -7 c-6 -5 -25 10 -25 20 0 5 6 4
14 -3 8 -7 12 -15 11 -17z m145 19 c0 -5 -5 -10 -11 -10 -5 0 -7 5 -4 10 3 6
8 10 11 10 2 0 4 -4 4 -10z m1185 -38 c-6 -7 -35 18 -35 31 0 5 9 2 20 -8 11
-10 18 -20 15 -23z m238 18 c4 -16 0 -20 -16 -19 -12 0 -16 3 -9 6 6 2 12 11
12 19 0 20 7 17 13 -6z m-2223 -5 c11 -13 10 -14 -4 -9 -9 3 -16 10 -16 15 0
13 6 11 20 -6z m440 1 c0 -3 -4 -8 -10 -11 -5 -3 -10 -1 -10 4 0 6 5 11 10 11
6 0 10 -2 10 -4z m1457 -63 c-3 -10 -5 -4 -5 12 0 17 2 24 5 18 2 -7 2 -21 0
-30z m173 7 c0 -3 -9 -6 -20 -6 -13 0 -20 7 -20 18 0 16 3 16 20 6 11 -7 20
-15 20 -18z m290 20 c0 -5 -2 -10 -4 -10 -3 0 -8 5 -11 10 -3 6 -1 10 4 10 6
0 11 -4 11 -10z m154 -5 c-4 -8 -8 -15 -10 -15 -2 0 -4 7 -4 15 0 8 4 15 10
15 5 0 7 -7 4 -15z m26 -8 c0 -16 -6 -23 -22 -24 -20 -2 -21 -1 -5 8 9 6 17
17 17 24 0 8 2 15 5 15 3 0 5 -10 5 -23z m-2530 -1 c0 -21 -21 -31 -30 -15 -5
7 -6 17 -4 21 9 14 34 9 34 -6z m140 -8 c0 -16 -3 -16 -20 -6 -11 7 -20 15
-20 18 0 3 9 6 20 6 13 0 20 -7 20 -18z m80 2 c0 -14 -6 -20 -22 -19 -13 0
-17 3 -10 6 6 2 12 11 12 19 0 8 5 14 10 14 6 0 10 -9 10 -20z m57 -2 c-3 -8
-6 -5 -6 6 -1 11 2 17 5 13 3 -3 4 -12 1 -19z m292 9 c8 -10 7 -14 -4 -14 -8
0 -15 6 -15 14 0 7 2 13 4 13 2 0 9 -6 15 -13z m217 -24 c-11 -11 -17 4 -9 23
7 18 8 18 11 1 2 -10 1 -21 -2 -24z m61 15 c-3 -8 -6 -5 -6 6 -1 11 2 17 5 13
3 -3 4 -12 1 -19z m1122 -9 c-25 -16 -33 -9 -13 10 10 10 21 14 23 8 2 -5 -3
-13 -10 -18z m251 22 c0 -4 -11 -6 -25 -3 -14 2 -25 6 -25 8 0 2 11 4 25 4 14
0 25 -4 25 -9z m387 -23 c-3 -7 -5 -2 -5 12 0 14 2 19 5 13 2 -7 2 -19 0 -25z
m213 11 c0 -6 -4 -7 -10 -4 -5 3 -10 11 -10 16 0 6 5 7 10 4 6 -3 10 -11 10
-16z m-2390 -5 c0 -2 -7 -4 -15 -4 -8 0 -15 4 -15 10 0 5 7 7 15 4 8 -4 15 -8
15 -10z m295 -3 c-3 -6 -14 -11 -23 -11 -15 1 -15 2 2 15 21 16 32 13 21 -4z
m262 -3 c-3 -8 -6 -5 -6 6 -1 11 2 17 5 13 3 -3 4 -12 1 -19z m1290 0 c-3 -8
-6 -5 -6 6 -1 11 2 17 5 13 3 -3 4 -12 1 -19z m88 3 c-3 -6 -11 -11 -16 -11
-5 0 -4 6 3 14 14 16 24 13 13 -3z m312 -3 c-3 -8 -6 -5 -6 6 -1 11 2 17 5 13
3 -3 4 -12 1 -19z m203 12 c0 -5 -4 -10 -10 -10 -5 0 -10 5 -10 10 0 6 5 10
10 10 6 0 10 -4 10 -10z m-998 -72 c-8 -8 -9 -4 -5 13 4 13 8 18 11 10 2 -7
-1 -18 -6 -23z m-1012 1 c0 -5 -9 -9 -20 -9 -17 0 -19 2 -8 14 13 14 28 12 28
-5z m200 11 c0 -5 -5 -10 -11 -10 -5 0 -7 5 -4 10 3 6 8 10 11 10 2 0 4 -4 4
-10z m890 -11 c0 -5 -4 -9 -10 -9 -5 0 -10 7 -10 16 0 8 5 12 10 9 6 -3 10
-10 10 -16z m-1970 1 c0 -5 -5 -10 -11 -10 -5 0 -7 5 -4 10 3 6 8 10 11 10 2
0 4 -4 4 -10z m207 -37 c-14 -4 -18 -12 -14 -29 2 -13 0 -21 -4 -18 -5 3 -9
16 -9 30 0 19 5 24 23 23 18 -1 19 -2 4 -6z m70 -30 c-3 -10 -5 -4 -5 12 0 17
2 24 5 18 2 -7 2 -21 0 -30z m108 26 c11 -16 1 -19 -13 -3 -7 8 -8 14 -3 14 5
0 13 -5 16 -11z m60 -76 c-3 -18 -10 -33 -16 -33 -6 0 -6 7 1 19 5 11 11 39
11 63 2 32 3 36 6 14 3 -16 2 -44 -2 -63z m575 62 c0 -33 -15 -33 -16 0 -1 14
2 25 7 25 5 0 9 -11 9 -25z m47 -7 c-3 -7 -5 -2 -5 12 0 14 2 19 5 13 2 -7 2
-19 0 -25z m609 2 c-1 -39 -16 -39 -16 0 0 17 4 30 9 30 4 0 8 -13 7 -30z
m1088 14 c5 -14 4 -15 -9 -4 -17 14 -19 20 -6 20 5 0 12 -7 15 -16z m-2764
-14 c0 -11 -4 -20 -10 -20 -5 0 -10 9 -10 20 0 11 5 20 10 20 6 0 10 -9 10
-20z m580 5 c0 -8 -4 -15 -10 -15 -5 0 -10 7 -10 15 0 8 5 15 10 15 6 0 10 -7
10 -15z m1810 0 c0 -8 -4 -15 -10 -15 -5 0 -10 7 -10 15 0 8 5 15 10 15 6 0
10 -7 10 -15z m160 5 c0 -5 -4 -10 -10 -10 -5 0 -10 5 -10 10 0 6 5 10 10 10
6 0 10 -4 10 -10z m-2039 -22 c11 -21 11 -22 -4 -9 -10 7 -17 17 -17 22 0 15
9 10 21 -13z m1186 0 c-3 -8 -6 -5 -6 6 -1 11 2 17 5 13 3 -3 4 -12 1 -19z
m63 12 c0 -5 -4 -10 -10 -10 -5 0 -10 5 -10 10 0 6 5 10 10 10 6 0 10 -4 10
-10z m267 -12 c-3 -8 -6 -5 -6 6 -1 11 2 17 5 13 3 -3 4 -12 1 -19z m434 -1
c-10 -9 -11 -8 -5 6 3 10 9 15 12 12 3 -3 0 -11 -7 -18z m52 3 c3 -11 1 -20
-4 -20 -5 0 -9 9 -9 20 0 11 2 20 4 20 2 0 6 -9 9 -20z m321 4 c3 -8 2 -12 -4
-9 -6 3 -10 10 -10 16 0 14 7 11 14 -7z m-2527 -16 c-3 -8 -6 -5 -6 6 -1 11 2
17 5 13 3 -3 4 -12 1 -19z m1973 12 c0 -5 -5 -10 -11 -10 -5 0 -7 5 -4 10 3 6
8 10 11 10 2 0 4 -4 4 -10z m-2280 -61 c0 -5 -4 -9 -10 -9 -5 0 -10 7 -10 16
0 8 5 12 10 9 6 -3 10 -10 10 -16z m226 -6 c-10 -10 -19 5 -10 18 6 11 8 11
12 0 2 -7 1 -15 -2 -18z m84 17 c0 -5 -4 -10 -10 -10 -5 0 -10 5 -10 10 0 6 5
10 10 10 6 0 10 -4 10 -10z m907 -22 c-3 -7 -5 -2 -5 12 0 14 2 19 5 13 2 -7
2 -19 0 -25z m50 0 c-3 -7 -5 -2 -5 12 0 14 2 19 5 13 2 -7 2 -19 0 -25z m26
17 c4 -8 2 -17 -3 -20 -6 -4 -10 3 -10 14 0 25 6 27 13 6z m407 0 c-5 -6 -7
-15 -3 -18 3 -4 -1 -7 -10 -7 -9 0 -17 2 -17 4 0 2 -3 11 -6 19 -4 10 2 15 21
15 19 0 23 -4 15 -13z m287 -6 c1 -11 -4 -15 -16 -12 -10 2 -18 11 -18 18 0
20 33 14 34 -6z m163 1 c0 -11 -4 -20 -9 -20 -6 0 -9 9 -8 20 1 11 5 20 9 20
4 0 8 -9 8 -20z m-2000 -5 c0 -9 -6 -12 -16 -8 -13 5 -13 7 -2 14 17 11 18 11
18 -6z m438 -10 c-3 -3 -9 2 -12 12 -6 14 -5 15 5 6 7 -7 10 -15 7 -18z m139
3 c-3 -8 -6 -5 -6 6 -1 11 2 17 5 13 3 -3 4 -12 1 -19z m2123 11 c0 -4 -6 -9
-13 -12 -8 -3 -14 0 -14 7 0 7 6 13 14 13 7 0 13 -4 13 -8z m-1375 -39 c-3 -5
-11 -10 -16 -10 -6 0 -7 5 -4 10 3 6 11 10 16 10 6 0 7 -4 4 -10z m-55 -10 c0
-5 -4 -10 -10 -10 -5 0 -10 5 -10 10 0 6 5 10 10 10 6 0 10 -4 10 -10z m-1410
-21 c0 -5 -7 -9 -15 -9 -8 0 -15 7 -15 15 0 9 6 12 15 9 8 -4 15 -10 15 -15z
m1140 0 c0 -5 -4 -9 -10 -9 -5 0 -10 7 -10 16 0 8 5 12 10 9 6 -3 10 -10 10
-16z m407 -1 c-3 -8 -6 -5 -6 6 -1 11 2 17 5 13 3 -3 4 -12 1 -19z m821 -3
c-3 -3 -9 2 -12 12 -6 14 -5 15 5 6 7 -7 10 -15 7 -18z m-1938 0 c0 -8 -4 -15
-10 -15 -5 0 -7 7 -4 15 4 8 8 15 10 15 2 0 4 -7 4 -15z m780 5 c0 -5 -4 -10
-10 -10 -5 0 -10 5 -10 10 0 6 5 10 10 10 6 0 10 -4 10 -10z m380 0 c0 -5 -2
-10 -4 -10 -3 0 -8 5 -11 10 -3 6 -1 10 4 10 6 0 11 -4 11 -10z m1287 -12 c-3
-8 -6 -5 -6 6 -1 11 2 17 5 13 3 -3 4 -12 1 -19z m-1412 2 c-3 -5 -12 -10 -18
-10 -7 0 -6 4 3 10 19 12 23 12 15 0z m-105 -10 c0 -5 -2 -10 -4 -10 -3 0 -8
5 -11 10 -3 6 -1 10 4 10 6 0 11 -4 11 -10z m40 0 c0 -5 -5 -10 -11 -10 -5 0
-7 5 -4 10 3 6 8 10 11 10 2 0 4 -4 4 -10z m-690 -30 c0 -5 -2 -10 -4 -10 -3
0 -8 5 -11 10 -3 6 -1 10 4 10 6 0 11 -4 11 -10z m1428 -18 c3 -17 -2 -22 -17
-22 -16 0 -21 6 -21 26 0 33 33 30 38 -4z m676 3 c-4 -15 -2 -25 4 -25 6 0 12
12 14 28 4 23 5 24 12 9 11 -24 -18 -57 -35 -40 -6 6 -8 20 -4 32 9 30 17 26
9 -4z m-2824 -5 c0 -11 -4 -20 -9 -20 -5 0 -7 9 -4 20 3 11 7 20 9 20 2 0 4
-9 4 -20z m1887 -12 c-3 -7 -5 -2 -5 12 0 14 2 19 5 13 2 -7 2 -19 0 -25z m89
3 c8 7 14 7 14 1 0 -12 -26 -23 -34 -15 -3 4 -5 16 -5 27 2 19 2 19 6 -2 4
-19 7 -21 19 -11z m311 -3 c-3 -7 -5 -2 -5 12 0 14 2 19 5 13 2 -7 2 -19 0
-25z m57 17 c-4 -8 -8 -15 -10 -15 -2 0 -4 7 -4 15 0 8 4 15 10 15 5 0 7 -7 4
-15z m31 -14 c-3 -12 -14 -21 -23 -21 -16 1 -15 2 1 11 9 5 17 17 17 26 0 9 3
14 6 10 3 -3 3 -15 -1 -26z m65 19 c0 -5 -2 -10 -4 -10 -3 0 -8 5 -11 10 -3 6
-1 10 4 10 6 0 11 -4 11 -10z m27 -10 c1 -11 -2 -18 -8 -15 -11 7 -12 35 -1
35 4 0 8 -9 9 -20z m60 14 c-3 -3 -12 -4 -19 -1 -8 3 -5 6 6 6 11 1 17 -2 13
-5z m-2153 -28 c-8 -21 -34 -21 -34 2 0 14 2 15 10 2 8 -12 10 -12 16 3 3 10
8 16 10 14 3 -2 2 -12 -2 -21z m50 8 c3 -8 2 -12 -4 -9 -6 3 -10 10 -10 16 0
14 7 11 14 -7z m589 -9 c-3 -8 -13 -15 -22 -14 -10 0 -11 2 -3 6 6 2 12 11 12
19 0 9 4 13 10 9 5 -3 7 -12 3 -20z m-288 5 c3 -5 -1 -10 -10 -10 -9 0 -13 5
-10 10 3 6 8 10 10 10 2 0 7 -4 10 -10z m212 -12 c-3 -8 -6 -5 -6 6 -1 11 2
17 5 13 3 -3 4 -12 1 -19z m543 3 c0 -4 -6 -8 -14 -8 -8 0 -12 6 -9 14 5 13
23 9 23 -6z m220 -6 c0 -3 -9 -5 -20 -5 -11 0 -20 7 -20 15 0 13 4 14 20 5 11
-6 20 -13 20 -15z m145 15 c13 11 14 10 9 -4 -8 -21 -28 -20 -45 2 -13 15 -12
16 4 3 14 -11 20 -11 32 -1z m920 0 c3 -5 1 -10 -4 -10 -6 0 -11 5 -11 10 0 6
2 10 4 10 3 0 8 -4 11 -10z m-2250 -10 c3 -5 1 -10 -4 -10 -6 0 -11 5 -11 10
0 6 2 10 4 10 3 0 8 -4 11 -10z m565 0 c0 -5 -7 -7 -15 -4 -8 4 -15 8 -15 10
0 2 7 4 15 4 8 0 15 -4 15 -10z m-282 -65 c-3 -3 -9 2 -12 12 -6 14 -5 15 5 6
7 -7 10 -15 7 -18z m1262 5 c0 -11 -4 -20 -9 -20 -7 0 -8 17 -2 38 4 10 11 -2
11 -18z m57 -2 c-3 -8 -6 -5 -6 6 -1 11 2 17 5 13 3 -3 4 -12 1 -19z m320 0
c-3 -8 -6 -5 -6 6 -1 11 2 17 5 13 3 -3 4 -12 1 -19z m109 -5 c-10 -10 -19 5
-10 18 6 11 8 11 12 0 2 -7 1 -15 -2 -18z m-2236 2 c0 -8 -4 -15 -10 -15 -5 0
-7 7 -4 15 4 8 8 15 10 15 2 0 4 -7 4 -15z m420 0 c0 -8 -2 -15 -4 -15 -2 0
-6 7 -10 15 -3 8 -1 15 4 15 6 0 10 -7 10 -15z m335 5 c3 -6 -1 -7 -9 -4 -18
7 -21 14 -7 14 6 0 13 -4 16 -10z m845 0 c0 -5 -5 -10 -11 -10 -5 0 -7 5 -4
10 3 6 8 10 11 10 2 0 4 -4 4 -10z m387 -12 c-3 -8 -6 -5 -6 6 -1 11 2 17 5
13 3 -3 4 -12 1 -19z m-2067 2 c0 -5 -12 -10 -27 -9 l-28 1 25 8 c14 4 26 8
28 9 1 1 2 -3 2 -9z m1760 -6 c0 -2 -9 -4 -21 -4 -11 0 -18 4 -14 10 5 8 35 3
35 -6z m148 -57 c12 -3 10 -5 -5 -6 -19 -1 -23 4 -22 27 1 22 2 23 6 5 2 -12
12 -24 21 -26z m-1908 24 c0 -6 -4 -13 -10 -16 -5 -3 -10 1 -10 9 0 9 5 16 10
16 6 0 10 -4 10 -9z m1760 -6 c0 -8 -4 -15 -9 -15 -13 0 -22 16 -14 24 11 11
23 6 23 -9z m320 -20 c0 -5 -5 -3 -10 5 -5 8 -10 20 -10 25 0 6 5 3 10 -5 5
-8 10 -19 10 -25z m197 3 c-3 -7 -5 -2 -5 12 0 14 2 19 5 13 2 -7 2 -19 0 -25z
m40 12 c1 -11 -2 -20 -8 -20 -10 0 -12 23 -2 33 9 9 9 10 10 -13z m-107 -10
c0 -5 -5 -10 -11 -10 -5 0 -7 5 -4 10 3 6 8 10 11 10 2 0 4 -4 4 -10z m-1994
-56 c-4 -9 -9 -15 -11 -12 -3 3 -3 13 1 22 4 9 9 15 11 12 3 -3 3 -13 -1 -22z
m281 -6 c-3 -7 -5 -2 -5 12 0 14 2 19 5 13 2 -7 2 -19 0 -25z m350 17 c0 -8
-4 -12 -9 -9 -4 3 -8 9 -8 15 0 5 4 9 8 9 5 0 9 -7 9 -15z m223 -19 c-14 -14
-24 0 -16 21 6 15 8 15 16 3 6 -9 5 -19 0 -24z m-510 8 c0 -8 -5 -12 -10 -9
-6 4 -8 11 -5 16 9 14 15 11 15 -7z m1158 -9 c-3 -3 -9 2 -12 12 -6 14 -5 15
5 6 7 -7 10 -15 7 -18z m39 3 c-3 -8 -6 -5 -6 6 -1 11 2 17 5 13 3 -3 4 -12 1
-19z m450 -10 c-3 -7 -5 -2 -5 12 0 14 2 19 5 13 2 -7 2 -19 0 -25z m-1839 5
c2 -7 -1 -13 -8 -13 -6 0 -8 5 -4 12 5 8 2 9 -9 5 -9 -3 -19 -1 -23 4 -4 7 3
9 17 7 12 -1 24 -9 27 -15z m422 7 c0 -5 -4 -10 -10 -10 -5 0 -10 5 -10 10 0
6 5 10 10 10 6 0 10 -4 10 -10z m-635 -10 c-3 -5 -11 -10 -16 -10 -6 0 -7 5
-4 10 3 6 11 10 16 10 6 0 7 -4 4 -10z m258 -60 c3 -11 1 -18 -4 -14 -5 3 -9
12 -9 20 0 20 7 17 13 -6z m374 -5 c-4 -8 -11 -15 -17 -15 -7 0 -7 6 0 21 13
23 26 19 17 -6z m59 -12 c-11 -11 -17 4 -9 23 7 18 8 18 11 1 2 -10 1 -21 -2
-24z m147 4 c-3 -4 -6 -7 -7 -5 -1 2 -8 12 -16 22 -14 18 -14 18 7 6 12 -8 19
-18 16 -23z m184 1 c-3 -7 -5 -2 -5 12 0 14 2 19 5 13 2 -7 2 -19 0 -25z m70
12 c1 -11 -2 -22 -6 -24 -3 -3 -8 6 -9 20 -1 13 2 24 6 24 4 0 8 -9 9 -20z
m160 -12 c-3 -7 -5 -2 -5 12 0 14 2 19 5 13 2 -7 2 -19 0 -25z m123 22 c0 -5
-4 -10 -10 -10 -5 0 -10 5 -10 10 0 6 5 10 10 10 6 0 10 -4 10 -10z m228 -12
c-3 -18 -38 -37 -38 -20 0 5 32 40 38 41 2 1 2 -9 0 -21z m229 0 c2 -18 0 -20
-7 -8 -12 18 -13 30 -2 30 4 0 9 -10 9 -22z m142 -8 c4 0 13 6 21 13 8 6 6 2
-5 -11 -14 -17 -21 -19 -27 -10 -4 7 -7 20 -7 28 1 11 3 10 6 -2 2 -10 8 -18
12 -18z m-169 -1 c0 -5 -4 -9 -8 -9 -5 0 -9 7 -9 15 0 8 4 12 9 9 4 -3 8 -9 8
-15z m110 1 c0 -5 -7 -10 -15 -10 -8 0 -15 5 -15 10 0 6 7 10 15 10 8 0 15 -4
15 -10z m-1707 -7 c-7 -2 -19 -2 -25 0 -7 3 -2 5 12 5 14 0 19 -2 13 -5z
m1014 1 c-3 -3 -12 -4 -19 -1 -8 3 -5 6 6 6 11 1 17 -2 13 -5z m703 -34 c0 -5
-5 -10 -11 -10 -5 0 -7 5 -4 10 3 6 8 10 11 10 2 0 4 -4 4 -10z m-773 -22 c-3
-8 -6 -5 -6 6 -1 11 2 17 5 13 3 -3 4 -12 1 -19z m453 2 c0 -5 -8 -10 -17 -10
-15 0 -16 2 -3 10 19 12 20 12 20 0z m-1400 -20 c0 -5 -2 -10 -4 -10 -3 0 -8
5 -11 10 -3 6 -1 10 4 10 6 0 11 -4 11 -10z m1105 -30 c3 -5 1 -10 -4 -10 -6
0 -11 5 -11 10 0 6 2 10 4 10 3 0 8 -4 11 -10z m295 -10 c0 -5 -2 -10 -4 -10
-3 0 -8 5 -11 10 -3 6 -1 10 4 10 6 0 11 -4 11 -10z m-1266 -25 c-4 -8 -10
-12 -15 -9 -11 6 -2 24 11 24 5 0 7 -7 4 -15z m216 -15 c0 -5 -4 -10 -10 -10
-5 0 -10 5 -10 10 0 6 5 10 10 10 6 0 10 -4 10 -10z m665 1 c3 -5 1 -12 -5
-16 -5 -3 -10 1 -10 9 0 18 6 21 15 7z m155 -16 c0 -8 -4 -15 -10 -15 -5 0
-10 7 -10 15 0 8 5 15 10 15 6 0 10 -7 10 -15z m-960 -5 c0 -5 -2 -10 -4 -10
-3 0 -8 5 -11 10 -3 6 -1 10 4 10 6 0 11 -4 11 -10z m347 -22 c-3 -7 -5 -2 -5
12 0 14 2 19 5 13 2 -7 2 -19 0 -25z m410 10 c-3 -8 -6 -5 -6 6 -1 11 2 17 5
13 3 -3 4 -12 1 -19z m280 -10 c-3 -7 -5 -2 -5 12 0 14 2 19 5 13 2 -7 2 -19
0 -25z m73 3 c0 -13 -2 -13 -9 -2 -5 7 -14 10 -20 7 -11 -7 -16 6 -5 17 10 10
34 -5 34 -22z m-900 4 c0 -8 -4 -15 -10 -15 -5 0 -7 7 -4 15 4 8 8 15 10 15 2
0 4 -7 4 -15z m77 -7 c-3 -8 -6 -5 -6 6 -1 11 2 17 5 13 3 -3 4 -12 1 -19z
m897 11 c3 -3 -4 -5 -14 -6 -11 -1 -20 2 -20 7 0 8 25 8 34 -1z m-444 -9 c0
-5 -5 -10 -11 -10 -5 0 -7 5 -4 10 3 6 8 10 11 10 2 0 4 -4 4 -10z m230 -10
c-8 -5 -17 -7 -19 -4 -3 3 1 9 9 14 8 5 17 7 19 4 3 -3 -1 -9 -9 -14z m-970 0
c0 -5 -4 -10 -10 -10 -5 0 -10 5 -10 10 0 6 5 10 10 10 6 0 10 -4 10 -10z
m325 0 c3 -5 1 -10 -4 -10 -6 0 -11 5 -11 10 0 6 2 10 4 10 3 0 8 -4 11 -10z
m715 -30 c0 -5 -5 -10 -11 -10 -5 0 -7 5 -4 10 3 6 8 10 11 10 2 0 4 -4 4 -10z
m-970 -10 c0 -5 -2 -10 -4 -10 -3 0 -8 5 -11 10 -3 6 -1 10 4 10 6 0 11 -4 11
-10z m537 -22 c-3 -7 -5 -2 -5 12 0 14 2 19 5 13 2 -7 2 -19 0 -25z m297 23
c4 -5 -3 -7 -14 -4 -12 3 -20 0 -20 -8 0 -7 -3 -10 -6 -6 -9 9 5 27 21 27 8 0
16 -4 19 -9z m186 -1 c0 -5 -5 -10 -11 -10 -5 0 -7 5 -4 10 3 6 8 10 11 10 2
0 4 -4 4 -10z m80 1 c0 -6 -4 -13 -10 -16 -5 -3 -10 1 -10 9 0 9 5 16 10 16 6
0 10 -4 10 -9z m-917 -20 c3 -14 1 -18 -9 -14 -15 6 -18 16 -7 26 9 10 10 9
16 -12z m-116 -13 c-3 -8 -6 -5 -6 6 -1 11 2 17 5 13 3 -3 4 -12 1 -19z m960
-5 c-9 -9 -20 -14 -24 -10 -3 4 2 14 13 21 25 19 33 10 11 -11z m-777 7 c0 -5
-2 -10 -4 -10 -3 0 -8 5 -11 10 -3 6 -1 10 4 10 6 0 11 -4 11 -10z m-113 -6
c-3 -3 -12 -4 -19 -1 -8 3 -5 6 6 6 11 1 17 -2 13 -5z m693 -4 c0 -5 -4 -10
-10 -10 -5 0 -10 5 -10 10 0 6 5 10 10 10 6 0 10 -4 10 -10z m912 -32 c-7 -7
-12 -8 -12 -2 0 14 12 26 19 19 2 -3 -1 -11 -7 -17z m-1062 8 c0 -3 -4 -8 -10
-11 -5 -3 -10 -1 -10 4 0 6 5 11 10 11 6 0 10 -2 10 -4z m284 -11 c-4 -8 -8
-15 -10 -15 -2 0 -4 7 -4 15 0 8 4 15 10 15 5 0 7 -7 4 -15z m-679 -5 c3 -5 1
-10 -4 -10 -6 0 -11 5 -11 10 0 6 2 10 4 10 3 0 8 -4 11 -10z m185 -10 c0 -5
-5 -10 -11 -10 -5 0 -7 5 -4 10 3 6 8 10 11 10 2 0 4 -4 4 -10z m357 -12 c-3
-8 -6 -5 -6 6 -1 11 2 17 5 13 3 -3 4 -12 1 -19z m-220 6 c-3 -3 -12 -4 -19
-1 -8 3 -5 6 6 6 11 1 17 -2 13 -5z m218 -54 c-3 -5 -11 -10 -16 -10 -6 0 -7
5 -4 10 3 6 11 10 16 10 6 0 7 -4 4 -10z m755 -43 c0 -5 -4 -5 -10 -2 -5 3
-10 14 -10 23 0 15 2 15 10 2 5 -8 10 -19 10 -23z m-1230 -7 c0 -5 -2 -10 -4
-10 -3 0 -8 5 -11 10 -3 6 -1 10 4 10 6 0 11 -4 11 -10z m69 -17 c0 -25 -1
-25 -8 -8 -5 11 -7 23 -4 28 8 14 13 7 12 -20z m61 17 c13 -8 13 -10 -2 -10
-9 0 -20 5 -23 10 -8 13 5 13 25 0z m123 -4 c4 -10 0 -12 -15 -8 -15 4 -17 7
-6 13 17 11 15 11 21 -5z m77 4 c0 -5 -5 -10 -11 -10 -5 0 -7 5 -4 10 3 6 8
10 11 10 2 0 4 -4 4 -10z m-80 -80 c0 -5 -5 -10 -11 -10 -5 0 -7 5 -4 10 3 6
8 10 11 10 2 0 4 -4 4 -10z m-1179 -53 c-10 -9 -11 -8 -5 6 3 10 9 15 12 12 3
-3 0 -11 -7 -18z m29 -17 c0 -5 -2 -10 -4 -10 -3 0 -8 5 -11 10 -3 6 -1 10 4
10 6 0 11 -4 11 -10z m330 -110 c0 -5 -5 -10 -11 -10 -5 0 -7 5 -4 10 3 6 8
10 11 10 2 0 4 -4 4 -10z m-9 -42 c11 -21 11 -22 -4 -9 -10 7 -17 17 -17 22 0
15 9 10 21 -13z m1414 -8 c3 -5 -1 -10 -9 -10 -9 0 -16 5 -16 10 0 6 4 10 9
10 6 0 13 -4 16 -10z m-1349 -85 c-5 -19 -2 -25 10 -25 13 0 14 -3 4 -15 -9
-11 -16 -12 -31 -2 -24 15 -24 36 -1 53 24 18 25 18 18 -11z m39 6 c3 -5 1
-12 -5 -16 -5 -3 -10 1 -10 9 0 18 6 21 15 7z m1217 -23 c-7 -7 -12 -8 -12 -2
0 14 12 26 19 19 2 -3 -1 -11 -7 -17z m-1102 -23 c0 -19 -5 -35 -10 -35 -6 0
-9 12 -6 28 2 15 5 30 5 35 1 4 3 7 6 7 3 0 5 -16 5 -35z m995 -15 c8 -13 -5
-13 -25 0 -13 8 -13 10 2 10 9 0 20 -4 23 -10z m-1125 -14 c0 -2 -7 -6 -15
-10 -8 -3 -15 -1 -15 4 0 6 7 10 15 10 8 0 15 -2 15 -4z m100 -8 c0 -4 -4 -8
-9 -8 -6 0 -12 4 -15 8 -3 5 1 9 9 9 8 0 15 -4 15 -9z m816 -35 c-10 -26 -18
-8 -9 23 5 21 8 24 11 11 2 -10 1 -25 -2 -34z m-891 7 c3 -5 1 -10 -4 -10 -6
0 -11 5 -11 10 0 6 2 10 4 10 3 0 8 -4 11 -10z m75 -24 c0 -3 -4 -8 -10 -11
-5 -3 -10 -1 -10 4 0 6 5 11 10 11 6 0 10 -2 10 -4z m-40 -26 c0 -5 -5 -10
-11 -10 -5 0 -7 5 -4 10 3 6 8 10 11 10 2 0 4 -4 4 -10z m130 -30 c0 -5 -5
-10 -11 -10 -5 0 -7 5 -4 10 3 6 8 10 11 10 2 0 4 -4 4 -10z"/>
<path d="M3000 1375 c0 -8 5 -15 10 -15 6 0 10 7 10 15 0 8 -4 15 -10 15 -5 0
-10 -7 -10 -15z"/>
<path d="M3700 899 c0 -5 5 -7 10 -4 6 3 10 8 10 11 0 2 -4 4 -10 4 -5 0 -10
-5 -10 -11z"/>
<path d="M1096 594 c-4 -9 -4 -19 -1 -22 2 -3 7 3 11 12 4 9 4 19 1 22 -2 3
-7 -3 -11 -12z"/>
<path d="M1285 441 c-3 -5 -1 -12 5 -16 5 -3 10 1 10 9 0 18 -6 21 -15 7z"/>
<path d="M3173 412 c1 -14 5 -18 11 -12 7 7 6 14 -1 21 -9 9 -12 7 -10 -9z"/>
<path d="M1335 370 c-3 -5 -1 -10 4 -10 6 0 11 5 11 10 0 6 -2 10 -4 10 -3 0
-8 -4 -11 -10z"/>
<path d="M1403 338 c-1 -11 -6 -24 -12 -27 -5 -4 -7 -12 -3 -18 4 -7 14 5 24
28 12 28 13 39 4 39 -6 0 -12 -10 -13 -22z"/>
<path d="M3021 304 c0 -11 3 -14 6 -6 3 7 2 16 -1 19 -3 4 -6 -2 -5 -13z"/>
<path d="M1410 260 c0 -6 7 -10 15 -10 8 0 15 2 15 4 0 2 -7 6 -15 10 -8 3
-15 1 -15 -4z"/>
<path d="M2280 9 c0 -5 5 -7 10 -4 6 3 10 8 10 11 0 2 -4 4 -10 4 -5 0 -10 -5
-10 -11z"/>
</g>
</svg>
